solid Exported from Blender-3.3.1
facet normal -0.816540 0.471430 0.333191
outer loop
vertex -0.804796 -0.280669 -0.198621
vertex -0.159332 0.091990 0.855925
vertex -0.159332 0.837308 -0.198621
endloop
endfacet
facet normal 0.816540 0.471430 0.333191
outer loop
vertex 0.159332 0.837308 -0.198621
vertex 0.159332 0.091990 0.855925
vertex 0.804796 -0.280669 -0.198621
endloop
endfacet
facet normal 0.000000 -0.942859 0.333191
outer loop
vertex 0.645464 -0.556639 -0.198621
vertex 0.000000 -0.183980 0.855925
vertex -0.645464 -0.556639 -0.198621
endloop
endfacet
facet normal -0.127653 0.368094 -0.920984
outer loop
vertex 0.000000 0.745200 -0.458850
vertex -0.106129 0.806512 -0.419635
vertex -0.000000 0.924236 -0.387294
endloop
endfacet
facet normal 0.127653 0.368093 -0.920984
outer loop
vertex 0.000000 0.745200 -0.458850
vertex -0.000000 0.924236 -0.387294
vertex 0.106129 0.806511 -0.419635
endloop
endfacet
facet normal -0.536943 0.636255 -0.553959
outer loop
vertex -0.106129 0.806512 -0.419635
vertex -0.162694 0.839212 -0.327249
vertex -0.049248 0.952701 -0.306862
endloop
endfacet
facet normal -0.536959 0.636252 -0.553947
outer loop
vertex -0.106129 0.806512 -0.419635
vertex -0.049248 0.952701 -0.306862
vertex -0.000000 0.924236 -0.387294
endloop
endfacet
facet normal -0.581885 0.777838 0.237439
outer loop
vertex -0.159332 0.837308 -0.198621
vertex -0.056564 0.900544 -0.153928
vertex -0.049248 0.952701 -0.306862
endloop
endfacet
facet normal -0.709541 0.704069 0.028967
outer loop
vertex -0.159332 0.837308 -0.198621
vertex -0.049248 0.952701 -0.306862
vertex -0.162694 0.839212 -0.327249
endloop
endfacet
facet normal 0.000000 0.946471 0.322788
outer loop
vertex -0.056564 0.900544 -0.153928
vertex 0.056564 0.900544 -0.153928
vertex 0.049248 0.952701 -0.306862
endloop
endfacet
facet normal 0.000000 0.946471 0.322789
outer loop
vertex -0.056564 0.900544 -0.153928
vertex 0.049248 0.952701 -0.306862
vertex -0.049248 0.952701 -0.306862
endloop
endfacet
facet normal 0.709541 0.704069 0.028968
outer loop
vertex 0.159332 0.837308 -0.198621
vertex 0.162694 0.839212 -0.327249
vertex 0.049248 0.952701 -0.306862
endloop
endfacet
facet normal 0.581885 0.777838 0.237439
outer loop
vertex 0.159332 0.837308 -0.198621
vertex 0.049248 0.952701 -0.306862
vertex 0.056564 0.900544 -0.153928
endloop
endfacet
facet normal 0.536951 0.636248 -0.553960
outer loop
vertex 0.162694 0.839212 -0.327249
vertex 0.106129 0.806511 -0.419635
vertex -0.000000 0.924236 -0.387294
endloop
endfacet
facet normal 0.536951 0.636260 -0.553946
outer loop
vertex 0.162694 0.839212 -0.327249
vertex -0.000000 0.924236 -0.387294
vertex 0.049248 0.952701 -0.306862
endloop
endfacet
facet normal 0.000000 0.942705 -0.333627
outer loop
vertex -0.000000 0.924236 -0.387294
vertex -0.049248 0.952701 -0.306862
vertex 0.049248 0.952701 -0.306862
endloop
endfacet
facet normal 0.382604 -0.073496 -0.920984
outer loop
vertex 0.645362 -0.372600 -0.458850
vertex 0.751524 -0.311346 -0.419635
vertex 0.800412 -0.462118 -0.387294
endloop
endfacet
facet normal 0.254951 -0.294598 -0.920984
outer loop
vertex 0.645362 -0.372600 -0.458850
vertex 0.800412 -0.462118 -0.387294
vertex 0.645395 -0.495166 -0.419635
endloop
endfacet
facet normal 0.819485 0.146879 -0.553959
outer loop
vertex 0.751524 -0.311346 -0.419635
vertex 0.808126 -0.278708 -0.327249
vertex 0.849687 -0.433700 -0.306862
endloop
endfacet
facet normal 0.819491 0.146894 -0.553946
outer loop
vertex 0.751524 -0.311346 -0.419635
vertex 0.849687 -0.433700 -0.306862
vertex 0.800412 -0.462118 -0.387294
endloop
endfacet
facet normal 0.964570 0.115008 0.237440
outer loop
vertex 0.804796 -0.280669 -0.198621
vertex 0.808176 -0.401286 -0.153928
vertex 0.849687 -0.433700 -0.306862
endloop
endfacet
facet normal 0.964512 0.262445 0.028969
outer loop
vertex 0.804796 -0.280669 -0.198621
vertex 0.849687 -0.433700 -0.306862
vertex 0.808126 -0.278708 -0.327249
endloop
endfacet
facet normal 0.819668 -0.473236 0.322789
outer loop
vertex 0.808176 -0.401286 -0.153928
vertex 0.751611 -0.499258 -0.153928
vertex 0.800439 -0.519000 -0.306862
endloop
endfacet
facet normal 0.819668 -0.473235 0.322789
outer loop
vertex 0.808176 -0.401286 -0.153928
vertex 0.800439 -0.519000 -0.306862
vertex 0.849687 -0.433700 -0.306862
endloop
endfacet
facet normal 0.254971 -0.966515 0.028969
outer loop
vertex 0.645464 -0.556639 -0.198621
vertex 0.645431 -0.560503 -0.327249
vertex 0.800439 -0.519000 -0.306862
endloop
endfacet
facet normal 0.382685 -0.892846 0.237440
outer loop
vertex 0.645464 -0.556639 -0.198621
vertex 0.800439 -0.519000 -0.306862
vertex 0.751611 -0.499258 -0.153928
endloop
endfacet
facet normal 0.282531 -0.783137 -0.553960
outer loop
vertex 0.645431 -0.560503 -0.327249
vertex 0.645395 -0.495166 -0.419635
vertex 0.800412 -0.462118 -0.387294
endloop
endfacet
facet normal 0.282542 -0.783144 -0.553945
outer loop
vertex 0.645431 -0.560503 -0.327249
vertex 0.800412 -0.462118 -0.387294
vertex 0.800439 -0.519000 -0.306862
endloop
endfacet
facet normal 0.816407 -0.471354 -0.333625
outer loop
vertex 0.800412 -0.462118 -0.387294
vertex 0.849687 -0.433700 -0.306862
vertex 0.800439 -0.519000 -0.306862
endloop
endfacet
facet normal -0.254951 -0.294598 -0.920984
outer loop
vertex -0.645362 -0.372600 -0.458850
vertex -0.645395 -0.495166 -0.419635
vertex -0.800412 -0.462118 -0.387294
endloop
endfacet
facet normal -0.382605 -0.073496 -0.920984
outer loop
vertex -0.645362 -0.372600 -0.458850
vertex -0.800412 -0.462118 -0.387294
vertex -0.751524 -0.311346 -0.419635
endloop
endfacet
facet normal -0.282542 -0.783135 -0.553958
outer loop
vertex -0.645395 -0.495166 -0.419635
vertex -0.645431 -0.560503 -0.327249
vertex -0.800439 -0.519000 -0.306862
endloop
endfacet
facet normal -0.282531 -0.783147 -0.553947
outer loop
vertex -0.645395 -0.495166 -0.419635
vertex -0.800439 -0.519000 -0.306862
vertex -0.800412 -0.462118 -0.387294
endloop
endfacet
facet normal -0.382685 -0.892846 0.237439
outer loop
vertex -0.645464 -0.556639 -0.198621
vertex -0.751611 -0.499258 -0.153928
vertex -0.800439 -0.519000 -0.306862
endloop
endfacet
facet normal -0.254971 -0.966515 0.028968
outer loop
vertex -0.645464 -0.556639 -0.198621
vertex -0.800439 -0.519000 -0.306862
vertex -0.645431 -0.560503 -0.327249
endloop
endfacet
facet normal -0.819668 -0.473236 0.322789
outer loop
vertex -0.751611 -0.499258 -0.153928
vertex -0.808176 -0.401286 -0.153928
vertex -0.849687 -0.433700 -0.306862
endloop
endfacet
facet normal -0.819668 -0.473234 0.322789
outer loop
vertex -0.751611 -0.499258 -0.153928
vertex -0.849687 -0.433700 -0.306862
vertex -0.800439 -0.519000 -0.306862
endloop
endfacet
facet normal -0.964512 0.262446 0.028968
outer loop
vertex -0.804796 -0.280669 -0.198621
vertex -0.808126 -0.278708 -0.327249
vertex -0.849687 -0.433700 -0.306862
endloop
endfacet
facet normal -0.964570 0.115007 0.237440
outer loop
vertex -0.804796 -0.280669 -0.198621
vertex -0.849687 -0.433700 -0.306862
vertex -0.808176 -0.401286 -0.153928
endloop
endfacet
facet normal -0.819483 0.146890 -0.553960
outer loop
vertex -0.808126 -0.278708 -0.327249
vertex -0.751524 -0.311346 -0.419635
vertex -0.800412 -0.462118 -0.387294
endloop
endfacet
facet normal -0.819494 0.146884 -0.553944
outer loop
vertex -0.808126 -0.278708 -0.327249
vertex -0.800412 -0.462118 -0.387294
vertex -0.849687 -0.433700 -0.306862
endloop
endfacet
facet normal -0.816408 -0.471353 -0.333624
outer loop
vertex -0.800412 -0.462118 -0.387294
vertex -0.800439 -0.519000 -0.306862
vertex -0.849687 -0.433700 -0.306862
endloop
endfacet
facet normal -0.709659 0.262194 0.653941
outer loop
vertex -0.159332 0.091990 0.855925
vertex -0.162712 -0.028627 0.900618
vertex -0.049253 0.028436 1.000864
endloop
endfacet
facet normal -0.581896 0.483486 0.653941
outer loop
vertex -0.159332 0.091990 0.855925
vertex -0.049253 0.028436 1.000864
vertex -0.056564 0.155226 0.900618
endloop
endfacet
facet normal -0.537122 -0.310108 0.784432
outer loop
vertex -0.162712 -0.028627 0.900618
vertex -0.106147 -0.126599 0.900618
vertex 0.000000 -0.056872 1.000865
endloop
endfacet
facet normal -0.537122 -0.310107 0.784432
outer loop
vertex -0.162712 -0.028627 0.900618
vertex 0.000000 -0.056872 1.000865
vertex -0.049253 0.028436 1.000864
endloop
endfacet
facet normal 0.127763 -0.745680 0.653941
outer loop
vertex 0.000000 -0.183980 0.855925
vertex 0.106147 -0.126599 0.900618
vertex 0.000000 -0.056872 1.000865
endloop
endfacet
facet normal -0.127763 -0.745679 0.653941
outer loop
vertex 0.000000 -0.183980 0.855925
vertex 0.000000 -0.056872 1.000865
vertex -0.106147 -0.126599 0.900618
endloop
endfacet
facet normal 0.537122 -0.310108 0.784432
outer loop
vertex 0.106147 -0.126599 0.900618
vertex 0.162712 -0.028627 0.900618
vertex 0.049253 0.028436 1.000865
endloop
endfacet
facet normal 0.537123 -0.310108 0.784431
outer loop
vertex 0.106147 -0.126599 0.900618
vertex 0.049253 0.028436 1.000865
vertex 0.000000 -0.056872 1.000865
endloop
endfacet
facet normal 0.581896 0.483486 0.653941
outer loop
vertex 0.159332 0.091990 0.855925
vertex 0.056564 0.155226 0.900618
vertex 0.049253 0.028436 1.000865
endloop
endfacet
facet normal 0.709658 0.262194 0.653941
outer loop
vertex 0.159332 0.091990 0.855925
vertex 0.049253 0.028436 1.000865
vertex 0.162712 -0.028627 0.900618
endloop
endfacet
facet normal -0.000001 0.620215 0.784432
outer loop
vertex 0.056564 0.155226 0.900618
vertex -0.056564 0.155226 0.900618
vertex -0.049253 0.028436 1.000864
endloop
endfacet
facet normal -0.000001 0.620215 0.784432
outer loop
vertex 0.056564 0.155226 0.900618
vertex -0.049253 0.028436 1.000864
vertex 0.049253 0.028436 1.000865
endloop
endfacet
facet normal 0.000002 0.000001 1.000000
outer loop
vertex -0.049253 0.028436 1.000864
vertex 0.000000 -0.056872 1.000865
vertex 0.049253 0.028436 1.000865
endloop
endfacet
facet normal 0.865635 0.499775 0.030027
outer loop
vertex 0.159332 0.837308 -0.198621
vertex 0.804796 -0.280669 -0.198621
vertex 0.808126 -0.278708 -0.327249
endloop
endfacet
facet normal 0.865635 0.499775 0.030025
outer loop
vertex 0.159332 0.837308 -0.198621
vertex 0.808126 -0.278708 -0.327249
vertex 0.162694 0.839212 -0.327249
endloop
endfacet
facet normal 0.707069 0.408226 -0.577412
outer loop
vertex 0.162694 0.839212 -0.327249
vertex 0.808126 -0.278708 -0.327249
vertex 0.751524 -0.311346 -0.419635
endloop
endfacet
facet normal 0.707069 0.408227 -0.577412
outer loop
vertex 0.162694 0.839212 -0.327249
vertex 0.751524 -0.311346 -0.419635
vertex 0.106129 0.806511 -0.419635
endloop
endfacet
facet normal 0.263904 0.152365 -0.952439
outer loop
vertex 0.106129 0.806511 -0.419635
vertex 0.751524 -0.311346 -0.419635
vertex 0.645362 -0.372600 -0.458850
endloop
endfacet
facet normal 0.263905 0.152365 -0.952439
outer loop
vertex 0.106129 0.806511 -0.419635
vertex 0.645362 -0.372600 -0.458850
vertex 0.000000 0.745200 -0.458850
endloop
endfacet
facet normal -0.601786 0.652205 0.460957
outer loop
vertex -0.159332 0.837308 -0.198621
vertex -0.159332 0.091990 0.855925
vertex -0.056564 0.155226 0.900618
endloop
endfacet
facet normal -0.601787 0.652205 0.460957
outer loop
vertex -0.159332 0.837308 -0.198621
vertex -0.056564 0.155226 0.900618
vertex -0.056564 0.900544 -0.153928
endloop
endfacet
facet normal -0.000000 0.816627 0.577165
outer loop
vertex -0.056564 0.900544 -0.153928
vertex -0.056564 0.155226 0.900618
vertex 0.056564 0.155226 0.900618
endloop
endfacet
facet normal 0.000000 0.816627 0.577165
outer loop
vertex -0.056564 0.900544 -0.153928
vertex 0.056564 0.155226 0.900618
vertex 0.056564 0.900544 -0.153928
endloop
endfacet
facet normal 0.601787 0.652205 0.460957
outer loop
vertex 0.056564 0.900544 -0.153928
vertex 0.056564 0.155226 0.900618
vertex 0.159332 0.091990 0.855925
endloop
endfacet
facet normal 0.601786 0.652205 0.460957
outer loop
vertex 0.056564 0.900544 -0.153928
vertex 0.159332 0.091990 0.855925
vertex 0.159332 0.837308 -0.198621
endloop
endfacet
facet normal 0.263933 -0.847265 0.460957
outer loop
vertex 0.000000 -0.183980 0.855925
vertex 0.645464 -0.556639 -0.198621
vertex 0.751611 -0.499258 -0.153928
endloop
endfacet
facet normal 0.263933 -0.847265 0.460957
outer loop
vertex 0.000000 -0.183980 0.855925
vertex 0.751611 -0.499258 -0.153928
vertex 0.106147 -0.126599 0.900618
endloop
endfacet
facet normal 0.707220 -0.408314 0.577165
outer loop
vertex 0.106147 -0.126599 0.900618
vertex 0.751611 -0.499258 -0.153928
vertex 0.808176 -0.401286 -0.153928
endloop
endfacet
facet normal 0.707220 -0.408314 0.577165
outer loop
vertex 0.106147 -0.126599 0.900618
vertex 0.808176 -0.401286 -0.153928
vertex 0.162712 -0.028627 0.900618
endloop
endfacet
facet normal 0.865719 0.195059 0.460957
outer loop
vertex 0.162712 -0.028627 0.900618
vertex 0.808176 -0.401286 -0.153928
vertex 0.804796 -0.280669 -0.198621
endloop
endfacet
facet normal 0.865719 0.195060 0.460957
outer loop
vertex 0.162712 -0.028627 0.900618
vertex 0.804796 -0.280669 -0.198621
vertex 0.159332 0.091990 0.855925
endloop
endfacet
facet normal 0.000000 -0.999549 0.030026
outer loop
vertex 0.645464 -0.556639 -0.198621
vertex -0.645464 -0.556639 -0.198621
vertex -0.645431 -0.560503 -0.327249
endloop
endfacet
facet normal 0.000000 -0.999549 0.030026
outer loop
vertex 0.645464 -0.556639 -0.198621
vertex -0.645431 -0.560503 -0.327249
vertex 0.645431 -0.560503 -0.327249
endloop
endfacet
facet normal 0.000000 -0.816453 -0.577412
outer loop
vertex 0.645431 -0.560503 -0.327249
vertex -0.645431 -0.560503 -0.327249
vertex -0.645395 -0.495166 -0.419635
endloop
endfacet
facet normal 0.000000 -0.816453 -0.577412
outer loop
vertex 0.645431 -0.560503 -0.327249
vertex -0.645395 -0.495166 -0.419635
vertex 0.645395 -0.495166 -0.419635
endloop
endfacet
facet normal 0.000000 -0.304731 -0.952439
outer loop
vertex 0.645395 -0.495166 -0.419635
vertex -0.645395 -0.495166 -0.419635
vertex -0.645362 -0.372600 -0.458850
endloop
endfacet
facet normal 0.000000 -0.304730 -0.952439
outer loop
vertex 0.645395 -0.495166 -0.419635
vertex -0.645362 -0.372600 -0.458850
vertex 0.645362 -0.372600 -0.458850
endloop
endfacet
facet normal -0.865719 0.195059 0.460958
outer loop
vertex -0.159332 0.091990 0.855925
vertex -0.804796 -0.280669 -0.198621
vertex -0.808176 -0.401286 -0.153928
endloop
endfacet
facet normal -0.865720 0.195060 0.460957
outer loop
vertex -0.159332 0.091990 0.855925
vertex -0.808176 -0.401286 -0.153928
vertex -0.162712 -0.028627 0.900618
endloop
endfacet
facet normal -0.707220 -0.408314 0.577165
outer loop
vertex -0.162712 -0.028627 0.900618
vertex -0.808176 -0.401286 -0.153928
vertex -0.751611 -0.499258 -0.153928
endloop
endfacet
facet normal -0.707220 -0.408314 0.577165
outer loop
vertex -0.162712 -0.028627 0.900618
vertex -0.751611 -0.499258 -0.153928
vertex -0.106147 -0.126599 0.900618
endloop
endfacet
facet normal -0.263933 -0.847265 0.460957
outer loop
vertex -0.106147 -0.126599 0.900618
vertex -0.751611 -0.499258 -0.153928
vertex -0.645464 -0.556639 -0.198621
endloop
endfacet
facet normal -0.263933 -0.847265 0.460957
outer loop
vertex -0.106147 -0.126599 0.900618
vertex -0.645464 -0.556639 -0.198621
vertex 0.000000 -0.183980 0.855925
endloop
endfacet
facet normal -0.865635 0.499774 0.030025
outer loop
vertex -0.804796 -0.280669 -0.198621
vertex -0.159332 0.837308 -0.198621
vertex -0.162694 0.839212 -0.327249
endloop
endfacet
facet normal -0.865635 0.499775 0.030025
outer loop
vertex -0.804796 -0.280669 -0.198621
vertex -0.162694 0.839212 -0.327249
vertex -0.808126 -0.278708 -0.327249
endloop
endfacet
facet normal -0.707069 0.408227 -0.577412
outer loop
vertex -0.808126 -0.278708 -0.327249
vertex -0.162694 0.839212 -0.327249
vertex -0.106129 0.806512 -0.419635
endloop
endfacet
facet normal -0.707069 0.408227 -0.577412
outer loop
vertex -0.808126 -0.278708 -0.327249
vertex -0.106129 0.806512 -0.419635
vertex -0.751524 -0.311346 -0.419635
endloop
endfacet
facet normal -0.263904 0.152365 -0.952439
outer loop
vertex -0.751524 -0.311346 -0.419635
vertex -0.106129 0.806512 -0.419635
vertex 0.000000 0.745200 -0.458850
endloop
endfacet
facet normal -0.263904 0.152365 -0.952439
outer loop
vertex -0.751524 -0.311346 -0.419635
vertex 0.000000 0.745200 -0.458850
vertex -0.645362 -0.372600 -0.458850
endloop
endfacet
facet normal 0.000000 0.000000 -1.000000
outer loop
vertex 0.000000 0.745200 -0.458850
vertex 0.645362 -0.372600 -0.458850
vertex -0.645362 -0.372600 -0.458850
endloop
endfacet
endsolid Exported from Blender-3.3.1
