solid Exported from Blender-3.3.1
facet normal 0.098017 0.995185 0.000000
outer loop
vertex 0.000000 0.660000 -0.750000
vertex 0.000000 0.660000 0.750000
vertex 0.128760 0.647318 0.750000
endloop
endfacet
facet normal 0.098017 0.995185 0.000000
outer loop
vertex 0.000000 0.660000 -0.750000
vertex 0.128760 0.647318 0.750000
vertex 0.128760 0.647318 -0.750000
endloop
endfacet
facet normal 0.290285 0.956940 0.000000
outer loop
vertex 0.128760 0.647318 -0.750000
vertex 0.128760 0.647318 0.750000
vertex 0.252571 0.609761 0.750000
endloop
endfacet
facet normal 0.290285 0.956940 0.000000
outer loop
vertex 0.128760 0.647318 -0.750000
vertex 0.252571 0.609761 0.750000
vertex 0.252571 0.609761 -0.750000
endloop
endfacet
facet normal 0.471397 0.881921 0.000000
outer loop
vertex 0.252571 0.609761 -0.750000
vertex 0.252571 0.609761 0.750000
vertex 0.366676 0.548770 0.750000
endloop
endfacet
facet normal 0.471397 0.881921 0.000000
outer loop
vertex 0.252571 0.609761 -0.750000
vertex 0.366676 0.548770 0.750000
vertex 0.366676 0.548770 -0.750000
endloop
endfacet
facet normal 0.634394 0.773010 0.000000
outer loop
vertex 0.366676 0.548770 -0.750000
vertex 0.366676 0.548770 0.750000
vertex 0.466690 0.466690 0.750000
endloop
endfacet
facet normal 0.634394 0.773010 0.000000
outer loop
vertex 0.366676 0.548770 -0.750000
vertex 0.466690 0.466690 0.750000
vertex 0.466690 0.466690 -0.750000
endloop
endfacet
facet normal 0.773010 0.634394 0.000000
outer loop
vertex 0.466690 0.466690 -0.750000
vertex 0.466690 0.466690 0.750000
vertex 0.548770 0.366676 0.750000
endloop
endfacet
facet normal 0.773011 0.634393 0.000000
outer loop
vertex 0.466690 0.466690 -0.750000
vertex 0.548770 0.366676 0.750000
vertex 0.548770 0.366676 -0.750000
endloop
endfacet
facet normal 0.881921 0.471397 0.000000
outer loop
vertex 0.548770 0.366676 -0.750000
vertex 0.548770 0.366676 0.750000
vertex 0.609761 0.252571 0.750000
endloop
endfacet
facet normal 0.881921 0.471397 0.000000
outer loop
vertex 0.548770 0.366676 -0.750000
vertex 0.609761 0.252571 0.750000
vertex 0.609761 0.252571 -0.750000
endloop
endfacet
facet normal 0.956940 0.290285 0.000000
outer loop
vertex 0.609761 0.252571 -0.750000
vertex 0.609761 0.252571 0.750000
vertex 0.647318 0.128760 0.750000
endloop
endfacet
facet normal 0.956941 0.290284 0.000000
outer loop
vertex 0.609761 0.252571 -0.750000
vertex 0.647318 0.128760 0.750000
vertex 0.647318 0.128760 -0.750000
endloop
endfacet
facet normal 0.995185 0.098018 0.000000
outer loop
vertex 0.647318 0.128760 -0.750000
vertex 0.647318 0.128760 0.750000
vertex 0.660000 0.000000 0.750000
endloop
endfacet
facet normal 0.995185 0.098017 0.000000
outer loop
vertex 0.647318 0.128760 -0.750000
vertex 0.660000 0.000000 0.750000
vertex 0.660000 0.000000 -0.750000
endloop
endfacet
facet normal 0.995185 -0.098017 0.000000
outer loop
vertex 0.660000 0.000000 -0.750000
vertex 0.660000 0.000000 0.750000
vertex 0.647318 -0.128760 0.750000
endloop
endfacet
facet normal 0.995185 -0.098018 0.000000
outer loop
vertex 0.660000 0.000000 -0.750000
vertex 0.647318 -0.128760 0.750000
vertex 0.647318 -0.128760 -0.750000
endloop
endfacet
facet normal 0.956941 -0.290284 0.000000
outer loop
vertex 0.647318 -0.128760 -0.750000
vertex 0.647318 -0.128760 0.750000
vertex 0.609761 -0.252571 0.750000
endloop
endfacet
facet normal 0.956940 -0.290285 0.000000
outer loop
vertex 0.647318 -0.128760 -0.750000
vertex 0.609761 -0.252571 0.750000
vertex 0.609761 -0.252571 -0.750000
endloop
endfacet
facet normal 0.881921 -0.471397 0.000000
outer loop
vertex 0.609761 -0.252571 -0.750000
vertex 0.609761 -0.252571 0.750000
vertex 0.548770 -0.366676 0.750000
endloop
endfacet
facet normal 0.881921 -0.471397 0.000000
outer loop
vertex 0.609761 -0.252571 -0.750000
vertex 0.548770 -0.366676 0.750000
vertex 0.548770 -0.366676 -0.750000
endloop
endfacet
facet normal 0.773011 -0.634393 0.000000
outer loop
vertex 0.548770 -0.366676 -0.750000
vertex 0.548770 -0.366676 0.750000
vertex 0.466690 -0.466690 0.750000
endloop
endfacet
facet normal 0.773010 -0.634394 0.000000
outer loop
vertex 0.548770 -0.366676 -0.750000
vertex 0.466690 -0.466690 0.750000
vertex 0.466690 -0.466690 -0.750000
endloop
endfacet
facet normal 0.634394 -0.773010 0.000000
outer loop
vertex 0.466690 -0.466690 -0.750000
vertex 0.466690 -0.466690 0.750000
vertex 0.366676 -0.548770 0.750000
endloop
endfacet
facet normal 0.634394 -0.773010 0.000000
outer loop
vertex 0.466690 -0.466690 -0.750000
vertex 0.366676 -0.548770 0.750000
vertex 0.366676 -0.548770 -0.750000
endloop
endfacet
facet normal 0.471397 -0.881921 0.000000
outer loop
vertex 0.366676 -0.548770 -0.750000
vertex 0.366676 -0.548770 0.750000
vertex 0.252571 -0.609761 0.750000
endloop
endfacet
facet normal 0.471397 -0.881921 0.000000
outer loop
vertex 0.366676 -0.548770 -0.750000
vertex 0.252571 -0.609761 0.750000
vertex 0.252571 -0.609761 -0.750000
endloop
endfacet
facet normal 0.290285 -0.956940 0.000000
outer loop
vertex 0.252571 -0.609761 -0.750000
vertex 0.252571 -0.609761 0.750000
vertex 0.128760 -0.647318 0.750000
endloop
endfacet
facet normal 0.290285 -0.956940 0.000000
outer loop
vertex 0.252571 -0.609761 -0.750000
vertex 0.128760 -0.647318 0.750000
vertex 0.128760 -0.647318 -0.750000
endloop
endfacet
facet normal 0.098017 -0.995185 0.000000
outer loop
vertex 0.128760 -0.647318 -0.750000
vertex 0.128760 -0.647318 0.750000
vertex 0.000000 -0.660000 0.750000
endloop
endfacet
facet normal 0.098017 -0.995185 0.000000
outer loop
vertex 0.128760 -0.647318 -0.750000
vertex 0.000000 -0.660000 0.750000
vertex 0.000000 -0.660000 -0.750000
endloop
endfacet
facet normal -0.098017 -0.995185 0.000000
outer loop
vertex 0.000000 -0.660000 -0.750000
vertex 0.000000 -0.660000 0.750000
vertex -0.128760 -0.647318 0.750000
endloop
endfacet
facet normal -0.098017 -0.995185 0.000000
outer loop
vertex 0.000000 -0.660000 -0.750000
vertex -0.128760 -0.647318 0.750000
vertex -0.128760 -0.647318 -0.750000
endloop
endfacet
facet normal -0.290285 -0.956940 0.000000
outer loop
vertex -0.128760 -0.647318 -0.750000
vertex -0.128760 -0.647318 0.750000
vertex -0.252571 -0.609761 0.750000
endloop
endfacet
facet normal -0.290285 -0.956940 0.000000
outer loop
vertex -0.128760 -0.647318 -0.750000
vertex -0.252571 -0.609761 0.750000
vertex -0.252571 -0.609761 -0.750000
endloop
endfacet
facet normal -0.471397 -0.881921 0.000000
outer loop
vertex -0.252571 -0.609761 -0.750000
vertex -0.252571 -0.609761 0.750000
vertex -0.366676 -0.548770 0.750000
endloop
endfacet
facet normal -0.471397 -0.881921 0.000000
outer loop
vertex -0.252571 -0.609761 -0.750000
vertex -0.366676 -0.548770 0.750000
vertex -0.366676 -0.548770 -0.750000
endloop
endfacet
facet normal -0.634394 -0.773010 0.000000
outer loop
vertex -0.366676 -0.548770 -0.750000
vertex -0.366676 -0.548770 0.750000
vertex -0.466690 -0.466690 0.750000
endloop
endfacet
facet normal -0.634394 -0.773010 0.000000
outer loop
vertex -0.366676 -0.548770 -0.750000
vertex -0.466690 -0.466690 0.750000
vertex -0.466690 -0.466690 -0.750000
endloop
endfacet
facet normal -0.773010 -0.634394 0.000000
outer loop
vertex -0.466690 -0.466690 -0.750000
vertex -0.466690 -0.466690 0.750000
vertex -0.548770 -0.366676 0.750000
endloop
endfacet
facet normal -0.773011 -0.634393 0.000000
outer loop
vertex -0.466690 -0.466690 -0.750000
vertex -0.548770 -0.366676 0.750000
vertex -0.548770 -0.366676 -0.750000
endloop
endfacet
facet normal -0.881921 -0.471397 0.000000
outer loop
vertex -0.548770 -0.366676 -0.750000
vertex -0.548770 -0.366676 0.750000
vertex -0.609761 -0.252571 0.750000
endloop
endfacet
facet normal -0.881921 -0.471397 0.000000
outer loop
vertex -0.548770 -0.366676 -0.750000
vertex -0.609761 -0.252571 0.750000
vertex -0.609761 -0.252571 -0.750000
endloop
endfacet
facet normal -0.956940 -0.290285 0.000000
outer loop
vertex -0.609761 -0.252571 -0.750000
vertex -0.609761 -0.252571 0.750000
vertex -0.647318 -0.128760 0.750000
endloop
endfacet
facet normal -0.956941 -0.290284 0.000000
outer loop
vertex -0.609761 -0.252571 -0.750000
vertex -0.647318 -0.128760 0.750000
vertex -0.647318 -0.128760 -0.750000
endloop
endfacet
facet normal -0.995185 -0.098018 0.000000
outer loop
vertex -0.647318 -0.128760 -0.750000
vertex -0.647318 -0.128760 0.750000
vertex -0.660000 0.000000 0.750000
endloop
endfacet
facet normal -0.995185 -0.098017 0.000000
outer loop
vertex -0.647318 -0.128760 -0.750000
vertex -0.660000 0.000000 0.750000
vertex -0.660000 0.000000 -0.750000
endloop
endfacet
facet normal -0.995185 0.098017 0.000000
outer loop
vertex -0.660000 0.000000 -0.750000
vertex -0.660000 0.000000 0.750000
vertex -0.647318 0.128760 0.750000
endloop
endfacet
facet normal -0.995185 0.098018 0.000000
outer loop
vertex -0.660000 0.000000 -0.750000
vertex -0.647318 0.128760 0.750000
vertex -0.647318 0.128760 -0.750000
endloop
endfacet
facet normal -0.956941 0.290284 0.000000
outer loop
vertex -0.647318 0.128760 -0.750000
vertex -0.647318 0.128760 0.750000
vertex -0.609761 0.252571 0.750000
endloop
endfacet
facet normal -0.956940 0.290285 0.000000
outer loop
vertex -0.647318 0.128760 -0.750000
vertex -0.609761 0.252571 0.750000
vertex -0.609761 0.252571 -0.750000
endloop
endfacet
facet normal -0.881921 0.471397 0.000000
outer loop
vertex -0.609761 0.252571 -0.750000
vertex -0.609761 0.252571 0.750000
vertex -0.548770 0.366676 0.750000
endloop
endfacet
facet normal -0.881921 0.471397 0.000000
outer loop
vertex -0.609761 0.252571 -0.750000
vertex -0.548770 0.366676 0.750000
vertex -0.548770 0.366676 -0.750000
endloop
endfacet
facet normal -0.773011 0.634393 0.000000
outer loop
vertex -0.548770 0.366676 -0.750000
vertex -0.548770 0.366676 0.750000
vertex -0.466690 0.466690 0.750000
endloop
endfacet
facet normal -0.773010 0.634394 0.000000
outer loop
vertex -0.548770 0.366676 -0.750000
vertex -0.466690 0.466690 0.750000
vertex -0.466690 0.466690 -0.750000
endloop
endfacet
facet normal -0.634394 0.773010 0.000000
outer loop
vertex -0.466690 0.466690 -0.750000
vertex -0.466690 0.466690 0.750000
vertex -0.366676 0.548770 0.750000
endloop
endfacet
facet normal -0.634394 0.773010 0.000000
outer loop
vertex -0.466690 0.466690 -0.750000
vertex -0.366676 0.548770 0.750000
vertex -0.366676 0.548770 -0.750000
endloop
endfacet
facet normal -0.471397 0.881921 0.000000
outer loop
vertex -0.366676 0.548770 -0.750000
vertex -0.366676 0.548770 0.750000
vertex -0.252571 0.609761 0.750000
endloop
endfacet
facet normal -0.471397 0.881921 0.000000
outer loop
vertex -0.366676 0.548770 -0.750000
vertex -0.252571 0.609761 0.750000
vertex -0.252571 0.609761 -0.750000
endloop
endfacet
facet normal 0.000000 0.000000 1.000000
outer loop
vertex 0.252571 0.609761 0.750000
vertex 0.128760 0.647318 0.750000
vertex 0.000000 0.660000 0.750000
endloop
endfacet
facet normal 0.000000 0.000000 1.000000
outer loop
vertex 0.000000 0.660000 0.750000
vertex -0.128760 0.647318 0.750000
vertex -0.252571 0.609761 0.750000
endloop
endfacet
facet normal 0.000000 0.000000 1.000000
outer loop
vertex -0.252571 0.609761 0.750000
vertex -0.366676 0.548770 0.750000
vertex -0.466690 0.466690 0.750000
endloop
endfacet
facet normal 0.000005 0.000000 1.000000
outer loop
vertex -0.466690 0.466690 0.750000
vertex -0.548770 0.366676 0.750000
vertex -0.609761 0.252571 0.750000
endloop
endfacet
facet normal 0.000005 0.000000 1.000000
outer loop
vertex -0.609761 0.252571 0.750000
vertex -0.647318 0.128760 0.750000
vertex -0.660000 0.000000 0.750000
endloop
endfacet
facet normal 0.000005 0.000000 1.000000
outer loop
vertex -0.660000 0.000000 0.750000
vertex -0.647318 -0.128760 0.750000
vertex -0.609761 -0.252571 0.750000
endloop
endfacet
facet normal 0.000005 0.000000 1.000000
outer loop
vertex -0.609761 -0.252571 0.750000
vertex -0.548770 -0.366676 0.750000
vertex -0.466690 -0.466690 0.750000
endloop
endfacet
facet normal 0.000000 0.000000 1.000000
outer loop
vertex -0.466690 -0.466690 0.750000
vertex -0.366676 -0.548770 0.750000
vertex -0.252571 -0.609761 0.750000
endloop
endfacet
facet normal 0.000000 0.000000 1.000000
outer loop
vertex -0.252571 -0.609761 0.750000
vertex -0.128760 -0.647318 0.750000
vertex 0.000000 -0.660000 0.750000
endloop
endfacet
facet normal 0.000000 0.000000 1.000000
outer loop
vertex 0.000000 -0.660000 0.750000
vertex 0.128760 -0.647318 0.750000
vertex 0.252571 -0.609761 0.750000
endloop
endfacet
facet normal 0.000000 0.000000 1.000000
outer loop
vertex 0.252571 -0.609761 0.750000
vertex 0.366676 -0.548770 0.750000
vertex 0.466690 -0.466690 0.750000
endloop
endfacet
facet normal -0.000005 0.000000 1.000000
outer loop
vertex 0.466690 -0.466690 0.750000
vertex 0.548770 -0.366676 0.750000
vertex 0.609761 -0.252571 0.750000
endloop
endfacet
facet normal -0.000005 0.000000 1.000000
outer loop
vertex 0.609761 -0.252571 0.750000
vertex 0.647318 -0.128760 0.750000
vertex 0.660000 0.000000 0.750000
endloop
endfacet
facet normal -0.000005 0.000000 1.000000
outer loop
vertex 0.660000 0.000000 0.750000
vertex 0.647318 0.128760 0.750000
vertex 0.609761 0.252571 0.750000
endloop
endfacet
facet normal -0.000005 0.000000 1.000000
outer loop
vertex 0.609761 0.252571 0.750000
vertex 0.548770 0.366676 0.750000
vertex 0.466690 0.466690 0.750000
endloop
endfacet
facet normal 0.000000 0.000000 1.000000
outer loop
vertex 0.466690 0.466690 0.750000
vertex 0.366676 0.548770 0.750000
vertex 0.252571 0.609761 0.750000
endloop
endfacet
facet normal 0.000000 0.000000 1.000000
outer loop
vertex 0.252571 0.609761 0.750000
vertex 0.000000 0.660000 0.750000
vertex -0.252571 0.609761 0.750000
endloop
endfacet
facet normal -0.000001 0.000000 1.000000
outer loop
vertex -0.252571 0.609761 0.750000
vertex -0.466690 0.466690 0.750000
vertex -0.609761 0.252571 0.750000
endloop
endfacet
facet normal 0.000000 0.000000 1.000000
outer loop
vertex -0.609761 0.252571 0.750000
vertex -0.660000 0.000000 0.750000
vertex -0.609761 -0.252571 0.750000
endloop
endfacet
facet normal -0.000001 0.000000 1.000000
outer loop
vertex -0.609761 -0.252571 0.750000
vertex -0.466690 -0.466690 0.750000
vertex -0.252571 -0.609761 0.750000
endloop
endfacet
facet normal 0.000000 0.000000 1.000000
outer loop
vertex -0.252571 -0.609761 0.750000
vertex 0.000000 -0.660000 0.750000
vertex 0.252571 -0.609761 0.750000
endloop
endfacet
facet normal 0.000001 0.000000 1.000000
outer loop
vertex 0.252571 -0.609761 0.750000
vertex 0.466690 -0.466690 0.750000
vertex 0.609761 -0.252571 0.750000
endloop
endfacet
facet normal 0.000000 0.000000 1.000000
outer loop
vertex 0.609761 -0.252571 0.750000
vertex 0.660000 0.000000 0.750000
vertex 0.609761 0.252571 0.750000
endloop
endfacet
facet normal 0.000001 0.000000 1.000000
outer loop
vertex 0.609761 0.252571 0.750000
vertex 0.466690 0.466690 0.750000
vertex 0.252571 0.609761 0.750000
endloop
endfacet
facet normal 0.000000 0.000000 1.000000
outer loop
vertex 0.252571 0.609761 0.750000
vertex -0.252571 0.609761 0.750000
vertex -0.609761 0.252571 0.750000
endloop
endfacet
facet normal -0.000000 0.000000 1.000000
outer loop
vertex -0.609761 0.252571 0.750000
vertex -0.609761 -0.252571 0.750000
vertex -0.252571 -0.609761 0.750000
endloop
endfacet
facet normal 0.000000 0.000000 1.000000
outer loop
vertex -0.252571 -0.609761 0.750000
vertex 0.252571 -0.609761 0.750000
vertex 0.609761 -0.252571 0.750000
endloop
endfacet
facet normal 0.000000 0.000000 1.000000
outer loop
vertex 0.609761 -0.252571 0.750000
vertex 0.609761 0.252571 0.750000
vertex 0.252571 0.609761 0.750000
endloop
endfacet
facet normal 0.000000 0.000000 1.000000
outer loop
vertex 0.252571 0.609761 0.750000
vertex -0.609761 0.252571 0.750000
vertex -0.252571 -0.609761 0.750000
endloop
endfacet
facet normal -0.000000 0.000000 1.000000
outer loop
vertex -0.252571 -0.609761 0.750000
vertex 0.609761 -0.252571 0.750000
vertex 0.252571 0.609761 0.750000
endloop
endfacet
facet normal -0.290285 0.956940 0.000000
outer loop
vertex -0.252571 0.609761 -0.750000
vertex -0.252571 0.609761 0.750000
vertex -0.128760 0.647318 0.750000
endloop
endfacet
facet normal -0.290285 0.956940 0.000000
outer loop
vertex -0.252571 0.609761 -0.750000
vertex -0.128760 0.647318 0.750000
vertex -0.128760 0.647318 -0.750000
endloop
endfacet
facet normal -0.098017 0.995185 0.000000
outer loop
vertex -0.128760 0.647318 -0.750000
vertex -0.128760 0.647318 0.750000
vertex 0.000000 0.660000 0.750000
endloop
endfacet
facet normal -0.098017 0.995185 0.000000
outer loop
vertex -0.128760 0.647318 -0.750000
vertex 0.000000 0.660000 0.750000
vertex 0.000000 0.660000 -0.750000
endloop
endfacet
facet normal 0.000000 0.000000 -1.000000
outer loop
vertex -0.128760 0.647318 -0.750000
vertex 0.000000 0.660000 -0.750000
vertex 0.128760 0.647318 -0.750000
endloop
endfacet
facet normal 0.000000 0.000000 -1.000000
outer loop
vertex 0.128760 0.647318 -0.750000
vertex 0.252571 0.609761 -0.750000
vertex 0.366676 0.548770 -0.750000
endloop
endfacet
facet normal 0.000000 0.000000 -1.000000
outer loop
vertex 0.366676 0.548770 -0.750000
vertex 0.466690 0.466690 -0.750000
vertex 0.548770 0.366676 -0.750000
endloop
endfacet
facet normal 0.000000 0.000000 -1.000000
outer loop
vertex 0.548770 0.366676 -0.750000
vertex 0.609761 0.252571 -0.750000
vertex 0.647318 0.128760 -0.750000
endloop
endfacet
facet normal 0.000000 0.000000 -1.000000
outer loop
vertex 0.647318 0.128760 -0.750000
vertex 0.660000 0.000000 -0.750000
vertex 0.647318 -0.128760 -0.750000
endloop
endfacet
facet normal 0.000000 0.000000 -1.000000
outer loop
vertex 0.647318 -0.128760 -0.750000
vertex 0.609761 -0.252571 -0.750000
vertex 0.548770 -0.366676 -0.750000
endloop
endfacet
facet normal 0.000000 0.000000 -1.000000
outer loop
vertex 0.548770 -0.366676 -0.750000
vertex 0.466690 -0.466690 -0.750000
vertex 0.366676 -0.548770 -0.750000
endloop
endfacet
facet normal 0.000000 0.000000 -1.000000
outer loop
vertex 0.366676 -0.548770 -0.750000
vertex 0.252571 -0.609761 -0.750000
vertex 0.128760 -0.647318 -0.750000
endloop
endfacet
facet normal 0.000000 0.000000 -1.000000
outer loop
vertex 0.128760 -0.647318 -0.750000
vertex 0.000000 -0.660000 -0.750000
vertex -0.128760 -0.647318 -0.750000
endloop
endfacet
facet normal 0.000000 0.000000 -1.000000
outer loop
vertex -0.128760 -0.647318 -0.750000
vertex -0.252571 -0.609761 -0.750000
vertex -0.366676 -0.548770 -0.750000
endloop
endfacet
facet normal 0.000000 0.000000 -1.000000
outer loop
vertex -0.366676 -0.548770 -0.750000
vertex -0.466690 -0.466690 -0.750000
vertex -0.548770 -0.366676 -0.750000
endloop
endfacet
facet normal 0.000000 0.000000 -1.000000
outer loop
vertex -0.548770 -0.366676 -0.750000
vertex -0.609761 -0.252571 -0.750000
vertex -0.647318 -0.128760 -0.750000
endloop
endfacet
facet normal 0.000000 0.000000 -1.000000
outer loop
vertex -0.647318 -0.128760 -0.750000
vertex -0.660000 0.000000 -0.750000
vertex -0.647318 0.128760 -0.750000
endloop
endfacet
facet normal 0.000000 0.000000 -1.000000
outer loop
vertex -0.647318 0.128760 -0.750000
vertex -0.609761 0.252571 -0.750000
vertex -0.548770 0.366676 -0.750000
endloop
endfacet
facet normal 0.000000 0.000000 -1.000000
outer loop
vertex -0.548770 0.366676 -0.750000
vertex -0.466690 0.466690 -0.750000
vertex -0.366676 0.548770 -0.750000
endloop
endfacet
facet normal 0.000000 0.000000 -1.000000
outer loop
vertex -0.366676 0.548770 -0.750000
vertex -0.252571 0.609761 -0.750000
vertex -0.128760 0.647318 -0.750000
endloop
endfacet
facet normal 0.000000 0.000000 -1.000000
outer loop
vertex -0.128760 0.647318 -0.750000
vertex 0.128760 0.647318 -0.750000
vertex 0.366676 0.548770 -0.750000
endloop
endfacet
facet normal 0.000000 0.000000 -1.000000
outer loop
vertex 0.366676 0.548770 -0.750000
vertex 0.548770 0.366676 -0.750000
vertex 0.647318 0.128760 -0.750000
endloop
endfacet
facet normal 0.000001 0.000000 -1.000000
outer loop
vertex 0.647318 0.128760 -0.750000
vertex 0.647318 -0.128760 -0.750000
vertex 0.548770 -0.366676 -0.750000
endloop
endfacet
facet normal 0.000000 0.000000 -1.000000
outer loop
vertex 0.548770 -0.366676 -0.750000
vertex 0.366676 -0.548770 -0.750000
vertex 0.128760 -0.647318 -0.750000
endloop
endfacet
facet normal 0.000000 0.000000 -1.000000
outer loop
vertex 0.128760 -0.647318 -0.750000
vertex -0.128760 -0.647318 -0.750000
vertex -0.366676 -0.548770 -0.750000
endloop
endfacet
facet normal 0.000000 0.000000 -1.000000
outer loop
vertex -0.366676 -0.548770 -0.750000
vertex -0.548770 -0.366676 -0.750000
vertex -0.647318 -0.128760 -0.750000
endloop
endfacet
facet normal -0.000001 0.000000 -1.000000
outer loop
vertex -0.647318 -0.128760 -0.750000
vertex -0.647318 0.128760 -0.750000
vertex -0.548770 0.366676 -0.750000
endloop
endfacet
facet normal 0.000000 0.000000 -1.000000
outer loop
vertex -0.548770 0.366676 -0.750000
vertex -0.366676 0.548770 -0.750000
vertex -0.128760 0.647318 -0.750000
endloop
endfacet
facet normal 0.000000 0.000000 -1.000000
outer loop
vertex -0.128760 0.647318 -0.750000
vertex 0.366676 0.548770 -0.750000
vertex 0.647318 0.128760 -0.750000
endloop
endfacet
facet normal -0.000000 0.000000 -1.000000
outer loop
vertex 0.647318 0.128760 -0.750000
vertex 0.548770 -0.366676 -0.750000
vertex 0.128760 -0.647318 -0.750000
endloop
endfacet
facet normal 0.000000 0.000000 -1.000000
outer loop
vertex 0.128760 -0.647318 -0.750000
vertex -0.366676 -0.548770 -0.750000
vertex -0.647318 -0.128760 -0.750000
endloop
endfacet
facet normal 0.000000 0.000000 -1.000000
outer loop
vertex -0.647318 -0.128760 -0.750000
vertex -0.548770 0.366676 -0.750000
vertex -0.128760 0.647318 -0.750000
endloop
endfacet
facet normal 0.000000 0.000000 -1.000000
outer loop
vertex -0.128760 0.647318 -0.750000
vertex 0.647318 0.128760 -0.750000
vertex 0.128760 -0.647318 -0.750000
endloop
endfacet
facet normal 0.000000 0.000000 -1.000000
outer loop
vertex 0.128760 -0.647318 -0.750000
vertex -0.647318 -0.128760 -0.750000
vertex -0.128760 0.647318 -0.750000
endloop
endfacet
endsolid Exported from Blender-3.3.1
