solid Exported from Blender-3.3.1
facet normal 0.048150 -0.148189 -0.987786
outer loop
vertex -0.000000 0.000000 -5.000000
vertex 1.015904 -0.738090 -4.839750
vertex -0.388034 -1.194263 -4.839750
endloop
endfacet
facet normal 0.722992 -0.412072 -0.554509
outer loop
vertex 3.618036 -2.628626 -2.236100
vertex 3.047734 -2.214283 -3.287595
vertex 4.063646 -1.476190 -2.511505
endloop
endfacet
facet normal -0.126060 -0.091586 -0.987786
outer loop
vertex -0.000000 0.000000 -5.000000
vertex -0.388034 -1.194263 -4.839750
vertex -1.255734 0.000000 -4.839745
endloop
endfacet
facet normal -0.126060 0.091586 -0.987786
outer loop
vertex -0.000000 0.000000 -5.000000
vertex -1.255734 0.000000 -4.839745
vertex -0.388034 1.194264 -4.839750
endloop
endfacet
facet normal 0.048151 0.148189 -0.987786
outer loop
vertex -0.000000 0.000000 -5.000000
vertex -0.388034 1.194264 -4.839750
vertex 1.015904 0.738090 -4.839750
endloop
endfacet
facet normal 0.819296 -0.412072 -0.398686
outer loop
vertex 3.618036 -2.628626 -2.236100
vertex 4.063646 -1.476190 -2.511505
vertex 4.303488 -2.214287 -1.255755
endloop
endfacet
facet normal -0.138725 -0.906533 -0.398690
outer loop
vertex -1.381940 -4.253246 -2.236100
vertex -0.148196 -4.320920 -2.511510
vertex -0.776076 -4.777110 -1.255760
endloop
endfacet
facet normal -0.905036 -0.148194 -0.398683
outer loop
vertex -4.472132 0.000000 -2.236080
vertex -4.155254 -1.194266 -2.511495
vertex -4.783128 -0.738093 -1.255745
endloop
endfacet
facet normal -0.420607 0.814946 -0.398689
outer loop
vertex -1.381940 4.253247 -2.236100
vertex -2.419858 3.582824 -2.511510
vertex -2.180034 4.320940 -1.255760
endloop
endfacet
facet normal 0.645086 0.651853 -0.398688
outer loop
vertex 3.618036 2.628627 -2.236100
vertex 2.659704 3.408563 -2.511510
vertex 3.435792 3.408577 -1.255760
endloop
endfacet
facet normal 0.771146 -0.560265 -0.302387
outer loop
vertex 3.618036 -2.628626 -2.236100
vertex 4.303488 -2.214287 -1.255755
vertex 3.435792 -3.408576 -1.255760
endloop
endfacet
facet normal -0.294548 -0.906533 -0.302388
outer loop
vertex -1.381940 -4.253246 -2.236100
vertex -0.776076 -4.777110 -1.255760
vertex -2.180034 -4.320940 -1.255760
endloop
endfacet
facet normal -0.953187 0.000000 -0.302383
outer loop
vertex -4.472132 0.000000 -2.236080
vertex -4.783128 -0.738093 -1.255745
vertex -4.783128 0.738094 -1.255745
endloop
endfacet
facet normal -0.294548 0.906533 -0.302388
outer loop
vertex -1.381940 4.253247 -2.236100
vertex -2.180034 4.320940 -1.255760
vertex -0.776076 4.777110 -1.255760
endloop
endfacet
facet normal 0.771146 0.560265 -0.302387
outer loop
vertex 3.618036 2.628627 -2.236100
vertex 3.435792 3.408577 -1.255760
vertex 4.303488 2.214287 -1.255755
endloop
endfacet
facet normal 0.342697 -0.758339 0.554509
outer loop
vertex 1.381940 -4.253246 2.236100
vertex 2.419858 -3.582823 2.511510
vertex 1.164108 -3.582816 3.287595
endloop
endfacet
facet normal -0.615326 -0.560263 0.554508
outer loop
vertex -3.618036 -2.628626 2.236100
vertex -2.659704 -3.408563 2.511510
vertex -3.047734 -2.214283 3.287595
endloop
endfacet
facet normal -0.722992 0.412072 0.554508
outer loop
vertex -3.618036 2.628627 2.236100
vertex -4.063646 1.476190 2.511505
vertex -3.047734 2.214283 3.287595
endloop
endfacet
facet normal 0.168485 0.814943 0.554509
outer loop
vertex 1.381940 4.253247 2.236100
vertex 0.148196 4.320920 2.511510
vertex 1.164108 3.582817 3.287595
endloop
endfacet
facet normal 0.827125 0.091587 0.554506
outer loop
vertex 4.472132 0.000000 2.236080
vertex 4.155254 1.194267 2.511495
vertex 3.767208 0.000000 3.287575
endloop
endfacet
facet normal 0.126060 0.091586 0.987786
outer loop
vertex 1.255734 0.000000 4.839745
vertex 0.388034 1.194264 4.839750
vertex -0.000000 0.000000 5.000000
endloop
endfacet
facet normal 0.391194 0.091451 0.915753
outer loop
vertex 2.628648 0.000000 4.253260
vertex 1.809002 1.314314 4.472145
vertex 1.255734 0.000000 4.839745
endloop
endfacet
facet normal 0.644124 0.091451 0.759434
outer loop
vertex 3.767208 0.000000 3.287575
vertex 3.190968 1.314320 3.618050
vertex 2.628648 0.000000 4.253260
endloop
endfacet
facet normal 0.233378 0.169558 0.957489
outer loop
vertex 1.255734 0.000000 4.839745
vertex 1.809002 1.314314 4.472145
vertex 0.388034 1.194264 4.839750
endloop
endfacet
facet normal 0.207861 0.343787 0.915754
outer loop
vertex 1.809002 1.314314 4.472145
vertex 0.812278 2.499977 4.253270
vertex 0.388034 1.194264 4.839750
endloop
endfacet
facet normal 0.516845 0.183046 0.836281
outer loop
vertex 2.628648 0.000000 4.253260
vertex 3.190968 1.314320 3.618050
vertex 1.809002 1.314314 4.472145
endloop
endfacet
facet normal 0.491120 0.356818 0.794658
outer loop
vertex 3.190968 1.314320 3.618050
vertex 2.236046 2.628640 3.618060
vertex 1.809002 1.314314 4.472145
endloop
endfacet
facet normal 0.333796 0.434984 0.836283
outer loop
vertex 1.809002 1.314314 4.472145
vertex 2.236046 2.628640 3.618060
vertex 0.812278 2.499977 4.253270
endloop
endfacet
facet normal 0.286016 0.584336 0.759438
outer loop
vertex 2.236046 2.628640 3.618060
vertex 1.164108 3.582817 3.287595
vertex 0.812278 2.499977 4.253270
endloop
endfacet
facet normal 0.752030 0.169559 0.636946
outer loop
vertex 3.767208 0.000000 3.287575
vertex 4.155254 1.194267 2.511495
vertex 3.190968 1.314320 3.618050
endloop
endfacet
facet normal 0.726113 0.343787 0.595459
outer loop
vertex 4.155254 1.194267 2.511495
vertex 3.440948 2.499984 2.628680
vertex 3.190968 1.314320 3.618050
endloop
endfacet
facet normal 0.598706 0.434986 0.672561
outer loop
vertex 3.190968 1.314320 3.618050
vertex 3.440948 2.499984 2.628680
vertex 2.236046 2.628640 3.618060
endloop
endfacet
facet normal 0.551344 0.584335 0.595460
outer loop
vertex 3.440948 2.499984 2.628680
vertex 2.419858 3.582824 2.511510
vertex 2.236046 2.628640 3.618060
endloop
endfacet
facet normal 0.393646 0.662827 0.636948
outer loop
vertex 2.236046 2.628640 3.618060
vertex 2.419858 3.582824 2.511510
vertex 1.164108 3.582817 3.287595
endloop
endfacet
facet normal 0.342697 0.758339 0.554509
outer loop
vertex 2.419858 3.582824 2.511510
vertex 1.381940 4.253247 2.236100
vertex 1.164108 3.582817 3.287595
endloop
endfacet
facet normal -0.048151 0.148189 0.987786
outer loop
vertex 0.388034 1.194264 4.839750
vertex -1.015904 0.738090 4.839750
vertex -0.000000 0.000000 5.000000
endloop
endfacet
facet normal 0.033909 0.400307 0.915754
outer loop
vertex 0.812278 2.499977 4.253270
vertex -0.690986 2.126597 4.472150
vertex 0.388034 1.194264 4.839750
endloop
endfacet
facet normal 0.112065 0.640855 0.759438
outer loop
vertex 1.164108 3.582817 3.287595
vertex -0.263948 3.440924 3.618060
vertex 0.812278 2.499977 4.253270
endloop
endfacet
facet normal -0.089143 0.274350 0.957489
outer loop
vertex 0.388034 1.194264 4.839750
vertex -0.690986 2.126597 4.472150
vertex -1.015904 0.738090 4.839750
endloop
endfacet
facet normal -0.262730 0.303921 0.915754
outer loop
vertex -0.690986 2.126597 4.472150
vertex -2.126614 1.545057 4.253270
vertex -1.015904 0.738090 4.839750
endloop
endfacet
facet normal -0.014375 0.548112 0.836282
outer loop
vertex 0.812278 2.499977 4.253270
vertex -0.263948 3.440924 3.618060
vertex -0.690986 2.126597 4.472150
endloop
endfacet
facet normal -0.187593 0.577344 0.794659
outer loop
vertex -0.263948 3.440924 3.618060
vertex -1.809018 2.938893 3.618060
vertex -0.690986 2.126597 4.472150
endloop
endfacet
facet normal -0.310547 0.451878 0.836282
outer loop
vertex -0.690986 2.126597 4.472150
vertex -1.809018 2.938893 3.618060
vertex -2.126614 1.545057 4.253270
endloop
endfacet
facet normal -0.467352 0.452587 0.759438
outer loop
vertex -1.809018 2.938893 3.618060
vertex -3.047734 2.214283 3.287595
vertex -2.126614 1.545057 4.253270
endloop
endfacet
facet normal 0.071124 0.767619 0.636948
outer loop
vertex 1.164108 3.582817 3.287595
vertex 0.148196 4.320920 2.511510
vertex -0.263948 3.440924 3.618060
endloop
endfacet
facet normal -0.102583 0.796807 0.595462
outer loop
vertex 0.148196 4.320920 2.511510
vertex -1.314344 4.045060 2.628690
vertex -0.263948 3.440924 3.618060
endloop
endfacet
facet normal -0.228688 0.703818 0.672564
outer loop
vertex -0.263948 3.440924 3.618060
vertex -1.314344 4.045060 2.628690
vertex -1.809018 2.938893 3.618060
endloop
endfacet
facet normal -0.385367 0.704924 0.595462
outer loop
vertex -1.314344 4.045060 2.628690
vertex -2.659704 3.408563 2.511510
vertex -1.809018 2.938893 3.618060
endloop
endfacet
facet normal -0.508742 0.579205 0.636948
outer loop
vertex -1.809018 2.938893 3.618060
vertex -2.659704 3.408563 2.511510
vertex -3.047734 2.214283 3.287595
endloop
endfacet
facet normal -0.615326 0.560263 0.554508
outer loop
vertex -2.659704 3.408563 2.511510
vertex -3.618036 2.628627 2.236100
vertex -3.047734 2.214283 3.287595
endloop
endfacet
facet normal -0.155815 0.000000 0.987786
outer loop
vertex -1.015904 0.738090 4.839750
vertex -1.015904 -0.738090 4.839750
vertex -0.000000 0.000000 5.000000
endloop
endfacet
facet normal -0.370235 0.155951 0.915754
outer loop
vertex -2.126614 1.545057 4.253270
vertex -2.236050 0.000000 4.472145
vertex -1.015904 0.738090 4.839750
endloop
endfacet
facet normal -0.574858 0.304617 0.759439
outer loop
vertex -3.047734 2.214283 3.287595
vertex -3.354084 0.812287 3.618055
vertex -2.126614 1.545057 4.253270
endloop
endfacet
facet normal -0.288471 0.000000 0.957489
outer loop
vertex -1.015904 0.738090 4.839750
vertex -2.236050 0.000000 4.472145
vertex -1.015904 -0.738090 4.839750
endloop
endfacet
facet normal -0.370236 -0.155951 0.915754
outer loop
vertex -2.236050 0.000000 4.472145
vertex -2.126614 -1.545056 4.253270
vertex -1.015904 -0.738090 4.839750
endloop
endfacet
facet normal -0.525728 0.155706 0.836281
outer loop
vertex -2.126614 1.545057 4.253270
vertex -3.354084 0.812287 3.618055
vertex -2.236050 0.000000 4.472145
endloop
endfacet
facet normal -0.607057 0.000000 0.794658
outer loop
vertex -3.354084 0.812287 3.618055
vertex -3.354084 -0.812286 3.618055
vertex -2.236050 0.000000 4.472145
endloop
endfacet
facet normal -0.525728 -0.155706 0.836281
outer loop
vertex -2.236050 0.000000 4.472145
vertex -3.354084 -0.812286 3.618055
vertex -2.126614 -1.545056 4.253270
endloop
endfacet
facet normal -0.574858 -0.304617 0.759439
outer loop
vertex -3.354084 -0.812286 3.618055
vertex -3.047734 -2.214283 3.287595
vertex -2.126614 -1.545056 4.253270
endloop
endfacet
facet normal -0.708071 0.304853 0.636946
outer loop
vertex -3.047734 2.214283 3.287595
vertex -4.063646 1.476190 2.511505
vertex -3.354084 0.812287 3.618055
endloop
endfacet
facet normal -0.789510 0.148667 0.595460
outer loop
vertex -4.063646 1.476190 2.511505
vertex -4.253240 0.000000 2.628680
vertex -3.354084 0.812287 3.618055
endloop
endfacet
facet normal -0.740043 0.000000 0.672560
outer loop
vertex -3.354084 0.812287 3.618055
vertex -4.253240 0.000000 2.628680
vertex -3.354084 -0.812286 3.618055
endloop
endfacet
facet normal -0.789510 -0.148667 0.595460
outer loop
vertex -4.253240 0.000000 2.628680
vertex -4.063646 -1.476190 2.511505
vertex -3.354084 -0.812286 3.618055
endloop
endfacet
facet normal -0.708071 -0.304853 0.636946
outer loop
vertex -3.354084 -0.812286 3.618055
vertex -4.063646 -1.476190 2.511505
vertex -3.047734 -2.214283 3.287595
endloop
endfacet
facet normal -0.722992 -0.412072 0.554508
outer loop
vertex -4.063646 -1.476190 2.511505
vertex -3.618036 -2.628626 2.236100
vertex -3.047734 -2.214283 3.287595
endloop
endfacet
facet normal -0.048150 -0.148189 0.987786
outer loop
vertex -1.015904 -0.738090 4.839750
vertex 0.388034 -1.194263 4.839750
vertex -0.000000 0.000000 5.000000
endloop
endfacet
facet normal -0.262730 -0.303921 0.915754
outer loop
vertex -2.126614 -1.545056 4.253270
vertex -0.690986 -2.126596 4.472150
vertex -1.015904 -0.738090 4.839750
endloop
endfacet
facet normal -0.467353 -0.452587 0.759438
outer loop
vertex -3.047734 -2.214283 3.287595
vertex -1.809018 -2.938893 3.618060
vertex -2.126614 -1.545056 4.253270
endloop
endfacet
facet normal -0.089143 -0.274350 0.957489
outer loop
vertex -1.015904 -0.738090 4.839750
vertex -0.690986 -2.126596 4.472150
vertex 0.388034 -1.194263 4.839750
endloop
endfacet
facet normal 0.033909 -0.400307 0.915754
outer loop
vertex -0.690986 -2.126596 4.472150
vertex 0.812278 -2.499976 4.253270
vertex 0.388034 -1.194263 4.839750
endloop
endfacet
facet normal -0.310547 -0.451877 0.836282
outer loop
vertex -2.126614 -1.545056 4.253270
vertex -1.809018 -2.938893 3.618060
vertex -0.690986 -2.126596 4.472150
endloop
endfacet
facet normal -0.187593 -0.577344 0.794659
outer loop
vertex -1.809018 -2.938893 3.618060
vertex -0.263948 -3.440923 3.618060
vertex -0.690986 -2.126596 4.472150
endloop
endfacet
facet normal -0.014375 -0.548112 0.836281
outer loop
vertex -0.690986 -2.126596 4.472150
vertex -0.263948 -3.440923 3.618060
vertex 0.812278 -2.499976 4.253270
endloop
endfacet
facet normal 0.112065 -0.640855 0.759438
outer loop
vertex -0.263948 -3.440923 3.618060
vertex 1.164108 -3.582816 3.287595
vertex 0.812278 -2.499976 4.253270
endloop
endfacet
facet normal -0.508742 -0.579205 0.636948
outer loop
vertex -3.047734 -2.214283 3.287595
vertex -2.659704 -3.408563 2.511510
vertex -1.809018 -2.938893 3.618060
endloop
endfacet
facet normal -0.385367 -0.704924 0.595461
outer loop
vertex -2.659704 -3.408563 2.511510
vertex -1.314344 -4.045060 2.628690
vertex -1.809018 -2.938893 3.618060
endloop
endfacet
facet normal -0.228687 -0.703818 0.672564
outer loop
vertex -1.809018 -2.938893 3.618060
vertex -1.314344 -4.045060 2.628690
vertex -0.263948 -3.440923 3.618060
endloop
endfacet
facet normal -0.102583 -0.796807 0.595462
outer loop
vertex -1.314344 -4.045060 2.628690
vertex 0.148196 -4.320920 2.511510
vertex -0.263948 -3.440923 3.618060
endloop
endfacet
facet normal 0.071124 -0.767619 0.636948
outer loop
vertex -0.263948 -3.440923 3.618060
vertex 0.148196 -4.320920 2.511510
vertex 1.164108 -3.582816 3.287595
endloop
endfacet
facet normal 0.168485 -0.814943 0.554509
outer loop
vertex 0.148196 -4.320920 2.511510
vertex 1.381940 -4.253246 2.236100
vertex 1.164108 -3.582816 3.287595
endloop
endfacet
facet normal 0.126060 -0.091586 0.987786
outer loop
vertex 0.388034 -1.194263 4.839750
vertex 1.255734 0.000000 4.839745
vertex -0.000000 0.000000 5.000000
endloop
endfacet
facet normal 0.207861 -0.343787 0.915754
outer loop
vertex 0.812278 -2.499976 4.253270
vertex 1.809002 -1.314313 4.472145
vertex 0.388034 -1.194263 4.839750
endloop
endfacet
facet normal 0.286016 -0.584336 0.759438
outer loop
vertex 1.164108 -3.582816 3.287595
vertex 2.236046 -2.628640 3.618060
vertex 0.812278 -2.499976 4.253270
endloop
endfacet
facet normal 0.233378 -0.169558 0.957489
outer loop
vertex 0.388034 -1.194263 4.839750
vertex 1.809002 -1.314313 4.472145
vertex 1.255734 0.000000 4.839745
endloop
endfacet
facet normal 0.391194 -0.091451 0.915753
outer loop
vertex 1.809002 -1.314313 4.472145
vertex 2.628648 0.000000 4.253260
vertex 1.255734 0.000000 4.839745
endloop
endfacet
facet normal 0.333797 -0.434984 0.836283
outer loop
vertex 0.812278 -2.499976 4.253270
vertex 2.236046 -2.628640 3.618060
vertex 1.809002 -1.314313 4.472145
endloop
endfacet
facet normal 0.491120 -0.356818 0.794658
outer loop
vertex 2.236046 -2.628640 3.618060
vertex 3.190968 -1.314320 3.618050
vertex 1.809002 -1.314313 4.472145
endloop
endfacet
facet normal 0.516845 -0.183046 0.836280
outer loop
vertex 1.809002 -1.314313 4.472145
vertex 3.190968 -1.314320 3.618050
vertex 2.628648 0.000000 4.253260
endloop
endfacet
facet normal 0.644124 -0.091451 0.759434
outer loop
vertex 3.190968 -1.314320 3.618050
vertex 3.767208 0.000000 3.287575
vertex 2.628648 0.000000 4.253260
endloop
endfacet
facet normal 0.393646 -0.662827 0.636948
outer loop
vertex 1.164108 -3.582816 3.287595
vertex 2.419858 -3.582823 2.511510
vertex 2.236046 -2.628640 3.618060
endloop
endfacet
facet normal 0.551344 -0.584335 0.595460
outer loop
vertex 2.419858 -3.582823 2.511510
vertex 3.440948 -2.499983 2.628680
vertex 2.236046 -2.628640 3.618060
endloop
endfacet
facet normal 0.598706 -0.434986 0.672561
outer loop
vertex 2.236046 -2.628640 3.618060
vertex 3.440948 -2.499983 2.628680
vertex 3.190968 -1.314320 3.618050
endloop
endfacet
facet normal 0.726113 -0.343787 0.595459
outer loop
vertex 3.440948 -2.499983 2.628680
vertex 4.155254 -1.194266 2.511495
vertex 3.190968 -1.314320 3.618050
endloop
endfacet
facet normal 0.752030 -0.169559 0.636946
outer loop
vertex 3.190968 -1.314320 3.618050
vertex 4.155254 -1.194266 2.511495
vertex 3.767208 0.000000 3.287575
endloop
endfacet
facet normal 0.827125 -0.091587 0.554506
outer loop
vertex 4.155254 -1.194266 2.511495
vertex 4.472132 0.000000 2.236080
vertex 3.767208 0.000000 3.287575
endloop
endfacet
facet normal 0.905036 0.148194 0.398683
outer loop
vertex 4.783128 0.738094 1.255745
vertex 4.155254 1.194267 2.511495
vertex 4.472132 0.000000 2.236080
endloop
endfacet
facet normal 0.936571 0.303922 0.174545
outer loop
vertex 4.755290 1.545064 -0.000000
vertex 4.309020 2.126610 1.381980
vertex 4.783128 0.738094 1.255745
endloop
endfacet
facet normal 0.888266 0.452591 -0.078389
outer loop
vertex 4.303488 2.214287 -1.255755
vertex 4.045096 2.938910 -0.000000
vertex 4.755290 1.545064 -0.000000
endloop
endfacet
facet normal 0.896270 0.274350 0.348472
outer loop
vertex 4.783128 0.738094 1.255745
vertex 4.309020 2.126610 1.381980
vertex 4.155254 1.194267 2.511495
endloop
endfacet
facet normal 0.803908 0.400309 0.439869
outer loop
vertex 4.309020 2.126610 1.381980
vertex 3.440948 2.499984 2.628680
vertex 4.155254 1.194267 2.511495
endloop
endfacet
facet normal 0.886873 0.451880 0.096235
outer loop
vertex 4.755290 1.545064 -0.000000
vertex 4.045096 2.938910 -0.000000
vertex 4.309020 2.126610 1.381980
endloop
endfacet
facet normal 0.794655 0.577349 0.187594
outer loop
vertex 4.045096 2.938910 -0.000000
vertex 3.354102 3.440947 1.381985
vertex 4.309020 2.126610 1.381980
endloop
endfacet
facet normal 0.754418 0.548114 0.361144
outer loop
vertex 4.309020 2.126610 1.381980
vertex 3.354102 3.440947 1.381985
vertex 3.440948 2.499984 2.628680
endloop
endfacet
facet normal 0.629138 0.640858 0.439871
outer loop
vertex 3.354102 3.440947 1.381985
vertex 2.419858 3.582824 2.511510
vertex 3.440948 2.499984 2.628680
endloop
endfacet
facet normal 0.797217 0.579208 -0.170186
outer loop
vertex 4.303488 2.214287 -1.255755
vertex 3.435792 3.408577 -1.255760
vertex 4.045096 2.938910 -0.000000
endloop
endfacet
facet normal 0.704933 0.704929 -0.078388
outer loop
vertex 3.435792 3.408577 -1.255760
vertex 2.938928 4.045084 -0.000000
vertex 4.045096 2.938910 -0.000000
endloop
endfacet
facet normal 0.703827 0.703823 0.096235
outer loop
vertex 4.045096 2.938910 -0.000000
vertex 2.938928 4.045084 -0.000000
vertex 3.354102 3.440947 1.381985
endloop
endfacet
facet normal 0.578466 0.796813 0.174546
outer loop
vertex 2.938928 4.045084 -0.000000
vertex 2.180034 4.320940 1.255760
vertex 3.354102 3.440947 1.381985
endloop
endfacet
facet normal 0.537887 0.767622 0.348474
outer loop
vertex 3.354102 3.440947 1.381985
vertex 2.180034 4.320940 1.255760
vertex 2.419858 3.582824 2.511510
endloop
endfacet
facet normal 0.420607 0.814946 0.398689
outer loop
vertex 2.180034 4.320940 1.255760
vertex 1.381940 4.253247 2.236100
vertex 2.419858 3.582824 2.511510
endloop
endfacet
facet normal 0.138725 0.906533 0.398689
outer loop
vertex 0.776076 4.777110 1.255760
vertex 0.148196 4.320920 2.511510
vertex 1.381940 4.253247 2.236100
endloop
endfacet
facet normal 0.000364 0.984649 0.174545
outer loop
vertex -0.000000 5.000000 -0.000000
vertex -0.690992 4.755277 1.381985
vertex 0.776076 4.777110 1.255760
endloop
endfacet
facet normal -0.155953 0.984649 -0.078389
outer loop
vertex -0.776076 4.777110 -1.255760
vertex -1.545082 4.755283 -0.000000
vertex -0.000000 5.000000 -0.000000
endloop
endfacet
facet normal 0.016035 0.937180 0.348477
outer loop
vertex 0.776076 4.777110 1.255760
vertex -0.690992 4.755277 1.381985
vertex 0.148196 4.320920 2.511510
endloop
endfacet
facet normal -0.132298 0.888262 0.439872
outer loop
vertex -0.690992 4.755277 1.381985
vertex -1.314344 4.045060 2.628690
vertex 0.148196 4.320920 2.511510
endloop
endfacet
facet normal -0.155709 0.983104 0.096235
outer loop
vertex -0.000000 5.000000 -0.000000
vertex -1.545082 4.755283 -0.000000
vertex -0.690992 4.755277 1.381985
endloop
endfacet
facet normal -0.303534 0.934171 0.187593
outer loop
vertex -1.545082 4.755283 -0.000000
vertex -2.236076 4.253243 1.381985
vertex -0.690992 4.755277 1.381985
endloop
endfacet
facet normal -0.288164 0.886868 0.361145
outer loop
vertex -0.690992 4.755277 1.381985
vertex -2.236076 4.253243 1.381985
vertex -1.314344 4.045060 2.628690
endloop
endfacet
facet normal -0.415084 0.796379 0.439870
outer loop
vertex -2.236076 4.253243 1.381985
vertex -2.659704 3.408563 2.511510
vertex -1.314344 4.045060 2.628690
endloop
endfacet
facet normal -0.304507 0.937184 -0.170185
outer loop
vertex -0.776076 4.777110 -1.255760
vertex -2.180034 4.320940 -1.255760
vertex -1.545082 4.755283 -0.000000
endloop
endfacet
facet normal -0.452593 0.888265 -0.078389
outer loop
vertex -2.180034 4.320940 -1.255760
vertex -2.938928 4.045084 -0.000000
vertex -1.545082 4.755283 -0.000000
endloop
endfacet
facet normal -0.451883 0.886871 0.096236
outer loop
vertex -1.545082 4.755283 -0.000000
vertex -2.938928 4.045084 -0.000000
vertex -2.236076 4.253243 1.381985
endloop
endfacet
facet normal -0.579061 0.796381 0.174546
outer loop
vertex -2.938928 4.045084 -0.000000
vertex -3.435792 3.408577 1.255760
vertex -2.236076 4.253243 1.381985
endloop
endfacet
facet normal -0.563838 0.748767 0.348475
outer loop
vertex -2.236076 4.253243 1.381985
vertex -3.435792 3.408577 1.255760
vertex -2.659704 3.408563 2.511510
endloop
endfacet
facet normal -0.645086 0.651853 0.398688
outer loop
vertex -3.435792 3.408577 1.255760
vertex -3.618036 2.628627 2.236100
vertex -2.659704 3.408563 2.511510
endloop
endfacet
facet normal -0.819296 0.412072 0.398686
outer loop
vertex -4.303488 2.214287 1.255755
vertex -4.063646 1.476190 2.511505
vertex -3.618036 2.628627 2.236100
endloop
endfacet
facet normal -0.936345 0.304618 0.174545
outer loop
vertex -4.755290 1.545064 -0.000000
vertex -4.736066 0.812287 1.381980
vertex -4.303488 2.214287 1.255755
endloop
endfacet
facet normal -0.984650 0.155950 -0.078389
outer loop
vertex -4.783128 0.738094 -1.255745
vertex -5.000000 -0.000003 0.000005
vertex -4.755290 1.545064 -0.000000
endloop
endfacet
facet normal -0.886358 0.304853 0.348475
outer loop
vertex -4.303488 2.214287 1.255755
vertex -4.736066 0.812287 1.381980
vertex -4.063646 1.476190 2.511505
endloop
endfacet
facet normal -0.885671 0.148666 0.439869
outer loop
vertex -4.736066 0.812287 1.381980
vertex -4.253240 0.000000 2.628680
vertex -4.063646 1.476190 2.511505
endloop
endfacet
facet normal -0.983104 0.155706 0.096237
outer loop
vertex -4.755290 1.545064 -0.000000
vertex -5.000000 -0.000003 0.000005
vertex -4.736066 0.812287 1.381980
endloop
endfacet
facet normal -0.982247 -0.000001 0.187593
outer loop
vertex -5.000000 -0.000003 0.000005
vertex -4.736064 -0.812290 1.381985
vertex -4.736066 0.812287 1.381980
endloop
endfacet
facet normal -0.932510 0.000000 0.361145
outer loop
vertex -4.736066 0.812287 1.381980
vertex -4.736064 -0.812290 1.381985
vertex -4.253240 0.000000 2.628680
endloop
endfacet
facet normal -0.885671 -0.148666 0.439870
outer loop
vertex -4.736064 -0.812290 1.381985
vertex -4.063646 -1.476190 2.511505
vertex -4.253240 0.000000 2.628680
endloop
endfacet
facet normal -0.985412 0.000000 -0.170184
outer loop
vertex -4.783128 0.738094 -1.255745
vertex -4.783128 -0.738093 -1.255745
vertex -5.000000 -0.000003 0.000005
endloop
endfacet
facet normal -0.984649 -0.155950 -0.078389
outer loop
vertex -4.783128 -0.738093 -1.255745
vertex -4.755290 -1.545063 -0.000000
vertex -5.000000 -0.000003 0.000005
endloop
endfacet
facet normal -0.983104 -0.155706 0.096238
outer loop
vertex -5.000000 -0.000003 0.000005
vertex -4.755290 -1.545063 -0.000000
vertex -4.736064 -0.812290 1.381985
endloop
endfacet
facet normal -0.936345 -0.304618 0.174545
outer loop
vertex -4.755290 -1.545063 -0.000000
vertex -4.303488 -2.214287 1.255755
vertex -4.736064 -0.812290 1.381985
endloop
endfacet
facet normal -0.886357 -0.304854 0.348475
outer loop
vertex -4.736064 -0.812290 1.381985
vertex -4.303488 -2.214287 1.255755
vertex -4.063646 -1.476190 2.511505
endloop
endfacet
facet normal -0.819296 -0.412072 0.398686
outer loop
vertex -4.303488 -2.214287 1.255755
vertex -3.618036 -2.628626 2.236100
vertex -4.063646 -1.476190 2.511505
endloop
endfacet
facet normal -0.645086 -0.651853 0.398688
outer loop
vertex -3.435792 -3.408576 1.255760
vertex -2.659704 -3.408563 2.511510
vertex -3.618036 -2.628626 2.236100
endloop
endfacet
facet normal -0.579061 -0.796381 0.174545
outer loop
vertex -2.938928 -4.045083 -0.000000
vertex -2.236078 -4.253242 1.381985
vertex -3.435792 -3.408576 1.255760
endloop
endfacet
facet normal -0.452595 -0.888264 -0.078389
outer loop
vertex -2.180034 -4.320940 -1.255760
vertex -1.545086 -4.755283 -0.000005
vertex -2.938928 -4.045083 -0.000000
endloop
endfacet
facet normal -0.563838 -0.748767 0.348476
outer loop
vertex -3.435792 -3.408576 1.255760
vertex -2.236078 -4.253242 1.381985
vertex -2.659704 -3.408563 2.511510
endloop
endfacet
facet normal -0.415084 -0.796379 0.439871
outer loop
vertex -2.236078 -4.253242 1.381985
vertex -1.314344 -4.045060 2.628690
vertex -2.659704 -3.408563 2.511510
endloop
endfacet
facet normal -0.451884 -0.886871 0.096235
outer loop
vertex -2.938928 -4.045083 -0.000000
vertex -1.545086 -4.755283 -0.000005
vertex -2.236078 -4.253242 1.381985
endloop
endfacet
facet normal -0.303534 -0.934171 0.187593
outer loop
vertex -1.545086 -4.755283 -0.000005
vertex -0.690996 -4.755276 1.381985
vertex -2.236078 -4.253242 1.381985
endloop
endfacet
facet normal -0.288164 -0.886868 0.361145
outer loop
vertex -2.236078 -4.253242 1.381985
vertex -0.690996 -4.755276 1.381985
vertex -1.314344 -4.045060 2.628690
endloop
endfacet
facet normal -0.132298 -0.888262 0.439872
outer loop
vertex -0.690996 -4.755276 1.381985
vertex 0.148196 -4.320920 2.511510
vertex -1.314344 -4.045060 2.628690
endloop
endfacet
facet normal -0.304507 -0.937183 -0.170187
outer loop
vertex -2.180034 -4.320940 -1.255760
vertex -0.776076 -4.777110 -1.255760
vertex -1.545086 -4.755283 -0.000005
endloop
endfacet
facet normal -0.155952 -0.984649 -0.078389
outer loop
vertex -0.776076 -4.777110 -1.255760
vertex -0.000000 -5.000000 -0.000000
vertex -1.545086 -4.755283 -0.000005
endloop
endfacet
facet normal -0.155708 -0.983104 0.096235
outer loop
vertex -1.545086 -4.755283 -0.000005
vertex -0.000000 -5.000000 -0.000000
vertex -0.690996 -4.755276 1.381985
endloop
endfacet
facet normal 0.000364 -0.984649 0.174544
outer loop
vertex -0.000000 -5.000000 -0.000000
vertex 0.776076 -4.777110 1.255760
vertex -0.690996 -4.755276 1.381985
endloop
endfacet
facet normal 0.016035 -0.937180 0.348477
outer loop
vertex -0.690996 -4.755276 1.381985
vertex 0.776076 -4.777110 1.255760
vertex 0.148196 -4.320920 2.511510
endloop
endfacet
facet normal 0.138725 -0.906533 0.398689
outer loop
vertex 0.776076 -4.777110 1.255760
vertex 1.381940 -4.253246 2.236100
vertex 0.148196 -4.320920 2.511510
endloop
endfacet
facet normal 0.420607 -0.814946 0.398689
outer loop
vertex 2.180034 -4.320940 1.255760
vertex 2.419858 -3.582823 2.511510
vertex 1.381940 -4.253246 2.236100
endloop
endfacet
facet normal 0.578465 -0.796814 0.174545
outer loop
vertex 2.938928 -4.045083 -0.000000
vertex 3.354102 -3.440949 1.381980
vertex 2.180034 -4.320940 1.255760
endloop
endfacet
facet normal 0.704931 -0.704931 -0.078390
outer loop
vertex 3.435792 -3.408576 -1.255760
vertex 4.045094 -2.938916 -0.000010
vertex 2.938928 -4.045083 -0.000000
endloop
endfacet
facet normal 0.537887 -0.767622 0.348475
outer loop
vertex 2.180034 -4.320940 1.255760
vertex 3.354102 -3.440949 1.381980
vertex 2.419858 -3.582823 2.511510
endloop
endfacet
facet normal 0.629138 -0.640858 0.439871
outer loop
vertex 3.354102 -3.440949 1.381980
vertex 3.440948 -2.499983 2.628680
vertex 2.419858 -3.582823 2.511510
endloop
endfacet
facet normal 0.703825 -0.703824 0.096234
outer loop
vertex 2.938928 -4.045083 -0.000000
vertex 4.045094 -2.938916 -0.000010
vertex 3.354102 -3.440949 1.381980
endloop
endfacet
facet normal 0.794655 -0.577349 0.187593
outer loop
vertex 4.045094 -2.938916 -0.000010
vertex 4.309020 -2.126616 1.381970
vertex 3.354102 -3.440949 1.381980
endloop
endfacet
facet normal 0.754418 -0.548114 0.361144
outer loop
vertex 3.354102 -3.440949 1.381980
vertex 4.309020 -2.126616 1.381970
vertex 3.440948 -2.499983 2.628680
endloop
endfacet
facet normal 0.803908 -0.400309 0.439868
outer loop
vertex 4.309020 -2.126616 1.381970
vertex 4.155254 -1.194266 2.511495
vertex 3.440948 -2.499983 2.628680
endloop
endfacet
facet normal 0.797217 -0.579207 -0.170190
outer loop
vertex 3.435792 -3.408576 -1.255760
vertex 4.303488 -2.214287 -1.255755
vertex 4.045094 -2.938916 -0.000010
endloop
endfacet
facet normal 0.888267 -0.452590 -0.078389
outer loop
vertex 4.303488 -2.214287 -1.255755
vertex 4.755290 -1.545063 -0.000000
vertex 4.045094 -2.938916 -0.000010
endloop
endfacet
facet normal 0.886873 -0.451880 0.096234
outer loop
vertex 4.045094 -2.938916 -0.000010
vertex 4.755290 -1.545063 -0.000000
vertex 4.309020 -2.126616 1.381970
endloop
endfacet
facet normal 0.936571 -0.303922 0.174545
outer loop
vertex 4.755290 -1.545063 -0.000000
vertex 4.783128 -0.738093 1.255745
vertex 4.309020 -2.126616 1.381970
endloop
endfacet
facet normal 0.896270 -0.274351 0.348471
outer loop
vertex 4.309020 -2.126616 1.381970
vertex 4.783128 -0.738093 1.255745
vertex 4.155254 -1.194266 2.511495
endloop
endfacet
facet normal 0.905036 -0.148194 0.398683
outer loop
vertex 4.783128 -0.738093 1.255745
vertex 4.472132 0.000000 2.236080
vertex 4.155254 -1.194266 2.511495
endloop
endfacet
facet normal 0.294548 0.906533 0.302388
outer loop
vertex 2.180034 4.320940 1.255760
vertex 0.776076 4.777110 1.255760
vertex 1.381940 4.253247 2.236100
endloop
endfacet
facet normal 0.452594 0.888264 0.078389
outer loop
vertex 2.938928 4.045084 -0.000000
vertex 1.545086 4.755283 -0.000000
vertex 2.180034 4.320940 1.255760
endloop
endfacet
facet normal 0.579062 0.796380 -0.174545
outer loop
vertex 3.435792 3.408577 -1.255760
vertex 2.236078 4.253243 -1.381990
vertex 2.938928 4.045084 -0.000000
endloop
endfacet
facet normal 0.304507 0.937183 0.170186
outer loop
vertex 2.180034 4.320940 1.255760
vertex 1.545086 4.755283 -0.000000
vertex 0.776076 4.777110 1.255760
endloop
endfacet
facet normal 0.155953 0.984649 0.078388
outer loop
vertex 1.545086 4.755283 -0.000000
vertex -0.000000 5.000000 -0.000000
vertex 0.776076 4.777110 1.255760
endloop
endfacet
facet normal 0.451884 0.886871 -0.096235
outer loop
vertex 2.938928 4.045084 -0.000000
vertex 2.236078 4.253243 -1.381990
vertex 1.545086 4.755283 -0.000000
endloop
endfacet
facet normal 0.303532 0.934171 -0.187595
outer loop
vertex 2.236078 4.253243 -1.381990
vertex 0.690996 4.755273 -1.381990
vertex 1.545086 4.755283 -0.000000
endloop
endfacet
facet normal 0.155708 0.983104 -0.096236
outer loop
vertex 1.545086 4.755283 -0.000000
vertex 0.690996 4.755273 -1.381990
vertex -0.000000 5.000000 -0.000000
endloop
endfacet
facet normal -0.000362 0.984649 -0.174546
outer loop
vertex 0.690996 4.755273 -1.381990
vertex -0.776076 4.777110 -1.255760
vertex -0.000000 5.000000 -0.000000
endloop
endfacet
facet normal 0.563839 0.748766 -0.348476
outer loop
vertex 3.435792 3.408577 -1.255760
vertex 2.659704 3.408563 -2.511510
vertex 2.236078 4.253243 -1.381990
endloop
endfacet
facet normal 0.415083 0.796378 -0.439873
outer loop
vertex 2.659704 3.408563 -2.511510
vertex 1.314344 4.045060 -2.628690
vertex 2.236078 4.253243 -1.381990
endloop
endfacet
facet normal 0.288163 0.886869 -0.361145
outer loop
vertex 2.236078 4.253243 -1.381990
vertex 1.314344 4.045060 -2.628690
vertex 0.690996 4.755273 -1.381990
endloop
endfacet
facet normal 0.132298 0.888263 -0.439871
outer loop
vertex 1.314344 4.045060 -2.628690
vertex -0.148196 4.320920 -2.511510
vertex 0.690996 4.755273 -1.381990
endloop
endfacet
facet normal -0.016034 0.937180 -0.348477
outer loop
vertex 0.690996 4.755273 -1.381990
vertex -0.148196 4.320920 -2.511510
vertex -0.776076 4.777110 -1.255760
endloop
endfacet
facet normal -0.138724 0.906533 -0.398690
outer loop
vertex -0.148196 4.320920 -2.511510
vertex -1.381940 4.253247 -2.236100
vertex -0.776076 4.777110 -1.255760
endloop
endfacet
facet normal -0.771146 0.560265 0.302386
outer loop
vertex -3.435792 3.408577 1.255760
vertex -4.303488 2.214287 1.255755
vertex -3.618036 2.628627 2.236100
endloop
endfacet
facet normal -0.704932 0.704930 0.078389
outer loop
vertex -2.938928 4.045084 -0.000000
vertex -4.045092 2.938917 -0.000000
vertex -3.435792 3.408577 1.255760
endloop
endfacet
facet normal -0.578465 0.796813 -0.174546
outer loop
vertex -2.180034 4.320940 -1.255760
vertex -3.354094 3.440954 -1.381985
vertex -2.938928 4.045084 -0.000000
endloop
endfacet
facet normal -0.797217 0.579207 0.170187
outer loop
vertex -3.435792 3.408577 1.255760
vertex -4.045092 2.938917 -0.000000
vertex -4.303488 2.214287 1.255755
endloop
endfacet
facet normal -0.888266 0.452590 0.078388
outer loop
vertex -4.045092 2.938917 -0.000000
vertex -4.755290 1.545064 -0.000000
vertex -4.303488 2.214287 1.255755
endloop
endfacet
facet normal -0.703826 0.703824 -0.096236
outer loop
vertex -2.938928 4.045084 -0.000000
vertex -3.354094 3.440954 -1.381985
vertex -4.045092 2.938917 -0.000000
endloop
endfacet
facet normal -0.794654 0.577351 -0.187594
outer loop
vertex -3.354094 3.440954 -1.381985
vertex -4.309016 2.126620 -1.381980
vertex -4.045092 2.938917 -0.000000
endloop
endfacet
facet normal -0.886873 0.451880 -0.096234
outer loop
vertex -4.045092 2.938917 -0.000000
vertex -4.309016 2.126620 -1.381980
vertex -4.755290 1.545064 -0.000000
endloop
endfacet
facet normal -0.936571 0.303923 -0.174546
outer loop
vertex -4.309016 2.126620 -1.381980
vertex -4.783128 0.738094 -1.255745
vertex -4.755290 1.545064 -0.000000
endloop
endfacet
facet normal -0.537887 0.767622 -0.348475
outer loop
vertex -2.180034 4.320940 -1.255760
vertex -2.419858 3.582824 -2.511510
vertex -3.354094 3.440954 -1.381985
endloop
endfacet
facet normal -0.629138 0.640858 -0.439871
outer loop
vertex -2.419858 3.582824 -2.511510
vertex -3.440948 2.499984 -2.628680
vertex -3.354094 3.440954 -1.381985
endloop
endfacet
facet normal -0.754416 0.548116 -0.361144
outer loop
vertex -3.354094 3.440954 -1.381985
vertex -3.440948 2.499984 -2.628680
vertex -4.309016 2.126620 -1.381980
endloop
endfacet
facet normal -0.803908 0.400309 -0.439870
outer loop
vertex -3.440948 2.499984 -2.628680
vertex -4.155254 1.194267 -2.511495
vertex -4.309016 2.126620 -1.381980
endloop
endfacet
facet normal -0.896270 0.274350 -0.348472
outer loop
vertex -4.309016 2.126620 -1.381980
vertex -4.155254 1.194267 -2.511495
vertex -4.783128 0.738094 -1.255745
endloop
endfacet
facet normal -0.905036 0.148194 -0.398683
outer loop
vertex -4.155254 1.194267 -2.511495
vertex -4.472132 0.000000 -2.236080
vertex -4.783128 0.738094 -1.255745
endloop
endfacet
facet normal -0.771146 -0.560265 0.302386
outer loop
vertex -4.303488 -2.214287 1.255755
vertex -3.435792 -3.408576 1.255760
vertex -3.618036 -2.628626 2.236100
endloop
endfacet
facet normal -0.888266 -0.452590 0.078388
outer loop
vertex -4.755290 -1.545063 -0.000000
vertex -4.045092 -2.938916 -0.000000
vertex -4.303488 -2.214287 1.255755
endloop
endfacet
facet normal -0.936571 -0.303923 -0.174546
outer loop
vertex -4.783128 -0.738093 -1.255745
vertex -4.309016 -2.126620 -1.381980
vertex -4.755290 -1.545063 -0.000000
endloop
endfacet
facet normal -0.797217 -0.579207 0.170187
outer loop
vertex -4.303488 -2.214287 1.255755
vertex -4.045092 -2.938916 -0.000000
vertex -3.435792 -3.408576 1.255760
endloop
endfacet
facet normal -0.704932 -0.704930 0.078389
outer loop
vertex -4.045092 -2.938916 -0.000000
vertex -2.938928 -4.045083 -0.000000
vertex -3.435792 -3.408576 1.255760
endloop
endfacet
facet normal -0.886873 -0.451880 -0.096234
outer loop
vertex -4.755290 -1.545063 -0.000000
vertex -4.309016 -2.126620 -1.381980
vertex -4.045092 -2.938916 -0.000000
endloop
endfacet
facet normal -0.794654 -0.577350 -0.187594
outer loop
vertex -4.309016 -2.126620 -1.381980
vertex -3.354096 -3.440953 -1.381985
vertex -4.045092 -2.938916 -0.000000
endloop
endfacet
facet normal -0.703826 -0.703824 -0.096235
outer loop
vertex -4.045092 -2.938916 -0.000000
vertex -3.354096 -3.440953 -1.381985
vertex -2.938928 -4.045083 -0.000000
endloop
endfacet
facet normal -0.578465 -0.796814 -0.174546
outer loop
vertex -3.354096 -3.440953 -1.381985
vertex -2.180034 -4.320940 -1.255760
vertex -2.938928 -4.045083 -0.000000
endloop
endfacet
facet normal -0.896270 -0.274350 -0.348472
outer loop
vertex -4.783128 -0.738093 -1.255745
vertex -4.155254 -1.194266 -2.511495
vertex -4.309016 -2.126620 -1.381980
endloop
endfacet
facet normal -0.803907 -0.400309 -0.439870
outer loop
vertex -4.155254 -1.194266 -2.511495
vertex -3.440948 -2.499983 -2.628680
vertex -4.309016 -2.126620 -1.381980
endloop
endfacet
facet normal -0.754417 -0.548115 -0.361144
outer loop
vertex -4.309016 -2.126620 -1.381980
vertex -3.440948 -2.499983 -2.628680
vertex -3.354096 -3.440953 -1.381985
endloop
endfacet
facet normal -0.629138 -0.640858 -0.439872
outer loop
vertex -3.440948 -2.499983 -2.628680
vertex -2.419858 -3.582823 -2.511510
vertex -3.354096 -3.440953 -1.381985
endloop
endfacet
facet normal -0.537886 -0.767622 -0.348474
outer loop
vertex -3.354096 -3.440953 -1.381985
vertex -2.419858 -3.582823 -2.511510
vertex -2.180034 -4.320940 -1.255760
endloop
endfacet
facet normal -0.420607 -0.814946 -0.398689
outer loop
vertex -2.419858 -3.582823 -2.511510
vertex -1.381940 -4.253246 -2.236100
vertex -2.180034 -4.320940 -1.255760
endloop
endfacet
facet normal 0.294548 -0.906533 0.302388
outer loop
vertex 0.776076 -4.777110 1.255760
vertex 2.180034 -4.320940 1.255760
vertex 1.381940 -4.253246 2.236100
endloop
endfacet
facet normal 0.155952 -0.984649 0.078388
outer loop
vertex -0.000000 -5.000000 -0.000000
vertex 1.545086 -4.755283 -0.000000
vertex 0.776076 -4.777110 1.255760
endloop
endfacet
facet normal -0.000362 -0.984649 -0.174545
outer loop
vertex -0.776076 -4.777110 -1.255760
vertex 0.690996 -4.755273 -1.381990
vertex -0.000000 -5.000000 -0.000000
endloop
endfacet
facet normal 0.304507 -0.937183 0.170186
outer loop
vertex 0.776076 -4.777110 1.255760
vertex 1.545086 -4.755283 -0.000000
vertex 2.180034 -4.320940 1.255760
endloop
endfacet
facet normal 0.452594 -0.888264 0.078389
outer loop
vertex 1.545086 -4.755283 -0.000000
vertex 2.938928 -4.045083 -0.000000
vertex 2.180034 -4.320940 1.255760
endloop
endfacet
facet normal 0.155708 -0.983104 -0.096236
outer loop
vertex -0.000000 -5.000000 -0.000000
vertex 0.690996 -4.755273 -1.381990
vertex 1.545086 -4.755283 -0.000000
endloop
endfacet
facet normal 0.303534 -0.934171 -0.187595
outer loop
vertex 0.690996 -4.755273 -1.381990
vertex 2.236078 -4.253240 -1.381990
vertex 1.545086 -4.755283 -0.000000
endloop
endfacet
facet normal 0.451884 -0.886870 -0.096237
outer loop
vertex 1.545086 -4.755283 -0.000000
vertex 2.236078 -4.253240 -1.381990
vertex 2.938928 -4.045083 -0.000000
endloop
endfacet
facet normal 0.579060 -0.796381 -0.174546
outer loop
vertex 2.236078 -4.253240 -1.381990
vertex 3.435792 -3.408576 -1.255760
vertex 2.938928 -4.045083 -0.000000
endloop
endfacet
facet normal -0.016034 -0.937180 -0.348477
outer loop
vertex -0.776076 -4.777110 -1.255760
vertex -0.148196 -4.320920 -2.511510
vertex 0.690996 -4.755273 -1.381990
endloop
endfacet
facet normal 0.132298 -0.888262 -0.439872
outer loop
vertex -0.148196 -4.320920 -2.511510
vertex 1.314344 -4.045060 -2.628690
vertex 0.690996 -4.755273 -1.381990
endloop
endfacet
facet normal 0.288164 -0.886869 -0.361144
outer loop
vertex 0.690996 -4.755273 -1.381990
vertex 1.314344 -4.045060 -2.628690
vertex 2.236078 -4.253240 -1.381990
endloop
endfacet
facet normal 0.415084 -0.796379 -0.439871
outer loop
vertex 1.314344 -4.045060 -2.628690
vertex 2.659704 -3.408563 -2.511510
vertex 2.236078 -4.253240 -1.381990
endloop
endfacet
facet normal 0.563838 -0.748767 -0.348475
outer loop
vertex 2.236078 -4.253240 -1.381990
vertex 2.659704 -3.408563 -2.511510
vertex 3.435792 -3.408576 -1.255760
endloop
endfacet
facet normal 0.645086 -0.651853 -0.398688
outer loop
vertex 2.659704 -3.408563 -2.511510
vertex 3.618036 -2.628626 -2.236100
vertex 3.435792 -3.408576 -1.255760
endloop
endfacet
facet normal 0.953187 0.000000 0.302383
outer loop
vertex 4.783128 -0.738093 1.255745
vertex 4.783128 0.738094 1.255745
vertex 4.472132 0.000000 2.236080
endloop
endfacet
facet normal 0.984649 -0.155951 0.078389
outer loop
vertex 4.755290 -1.545063 -0.000000
vertex 5.000000 0.000000 -0.000000
vertex 4.783128 -0.738093 1.255745
endloop
endfacet
facet normal 0.936345 -0.304617 -0.174545
outer loop
vertex 4.303488 -2.214287 -1.255755
vertex 4.736066 -0.812286 -1.381980
vertex 4.755290 -1.545063 -0.000000
endloop
endfacet
facet normal 0.985412 0.000000 0.170185
outer loop
vertex 4.783128 -0.738093 1.255745
vertex 5.000000 0.000000 -0.000000
vertex 4.783128 0.738094 1.255745
endloop
endfacet
facet normal 0.984649 0.155951 0.078389
outer loop
vertex 5.000000 0.000000 -0.000000
vertex 4.755290 1.545064 -0.000000
vertex 4.783128 0.738094 1.255745
endloop
endfacet
facet normal 0.983104 -0.155706 -0.096237
outer loop
vertex 4.755290 -1.545063 -0.000000
vertex 4.736066 -0.812286 -1.381980
vertex 5.000000 0.000000 -0.000000
endloop
endfacet
facet normal 0.982247 0.000000 -0.187592
outer loop
vertex 4.736066 -0.812286 -1.381980
vertex 4.736066 0.812287 -1.381980
vertex 5.000000 0.000000 -0.000000
endloop
endfacet
facet normal 0.983104 0.155706 -0.096237
outer loop
vertex 5.000000 0.000000 -0.000000
vertex 4.736066 0.812287 -1.381980
vertex 4.755290 1.545064 -0.000000
endloop
endfacet
facet normal 0.936345 0.304617 -0.174545
outer loop
vertex 4.736066 0.812287 -1.381980
vertex 4.303488 2.214287 -1.255755
vertex 4.755290 1.545064 -0.000000
endloop
endfacet
facet normal 0.886357 -0.304854 -0.348475
outer loop
vertex 4.303488 -2.214287 -1.255755
vertex 4.063646 -1.476190 -2.511505
vertex 4.736066 -0.812286 -1.381980
endloop
endfacet
facet normal 0.885671 -0.148666 -0.439869
outer loop
vertex 4.063646 -1.476190 -2.511505
vertex 4.253240 0.000000 -2.628680
vertex 4.736066 -0.812286 -1.381980
endloop
endfacet
facet normal 0.932510 0.000000 -0.361145
outer loop
vertex 4.736066 -0.812286 -1.381980
vertex 4.253240 0.000000 -2.628680
vertex 4.736066 0.812287 -1.381980
endloop
endfacet
facet normal 0.885671 0.148666 -0.439869
outer loop
vertex 4.253240 0.000000 -2.628680
vertex 4.063646 1.476190 -2.511505
vertex 4.736066 0.812287 -1.381980
endloop
endfacet
facet normal 0.886357 0.304854 -0.348475
outer loop
vertex 4.736066 0.812287 -1.381980
vertex 4.063646 1.476190 -2.511505
vertex 4.303488 2.214287 -1.255755
endloop
endfacet
facet normal 0.819296 0.412072 -0.398686
outer loop
vertex 4.063646 1.476190 -2.511505
vertex 3.618036 2.628627 -2.236100
vertex 4.303488 2.214287 -1.255755
endloop
endfacet
facet normal 0.615326 0.560263 -0.554509
outer loop
vertex 3.047734 2.214283 -3.287595
vertex 2.659704 3.408563 -2.511510
vertex 3.618036 2.628627 -2.236100
endloop
endfacet
facet normal 0.467353 0.452586 -0.759438
outer loop
vertex 2.126614 1.545057 -4.253270
vertex 1.809018 2.938897 -3.618060
vertex 3.047734 2.214283 -3.287595
endloop
endfacet
facet normal 0.262729 0.303922 -0.915754
outer loop
vertex 1.015904 0.738090 -4.839750
vertex 0.690984 2.126607 -4.472145
vertex 2.126614 1.545057 -4.253270
endloop
endfacet
facet normal 0.508743 0.579205 -0.636947
outer loop
vertex 3.047734 2.214283 -3.287595
vertex 1.809018 2.938897 -3.618060
vertex 2.659704 3.408563 -2.511510
endloop
endfacet
facet normal 0.385368 0.704925 -0.595461
outer loop
vertex 1.809018 2.938897 -3.618060
vertex 1.314344 4.045060 -2.628690
vertex 2.659704 3.408563 -2.511510
endloop
endfacet
facet normal 0.310547 0.451876 -0.836282
outer loop
vertex 2.126614 1.545057 -4.253270
vertex 0.690984 2.126607 -4.472145
vertex 1.809018 2.938897 -3.618060
endloop
endfacet
facet normal 0.187592 0.577346 -0.794658
outer loop
vertex 0.690984 2.126607 -4.472145
vertex 0.263946 3.440930 -3.618055
vertex 1.809018 2.938897 -3.618060
endloop
endfacet
facet normal 0.228687 0.703819 -0.672563
outer loop
vertex 1.809018 2.938897 -3.618060
vertex 0.263946 3.440930 -3.618055
vertex 1.314344 4.045060 -2.628690
endloop
endfacet
facet normal 0.102583 0.796808 -0.595461
outer loop
vertex 0.263946 3.440930 -3.618055
vertex -0.148196 4.320920 -2.511510
vertex 1.314344 4.045060 -2.628690
endloop
endfacet
facet normal 0.089143 0.274352 -0.957489
outer loop
vertex 1.015904 0.738090 -4.839750
vertex -0.388034 1.194264 -4.839750
vertex 0.690984 2.126607 -4.472145
endloop
endfacet
facet normal -0.033909 0.400306 -0.915754
outer loop
vertex -0.388034 1.194264 -4.839750
vertex -0.812278 2.499977 -4.253270
vertex 0.690984 2.126607 -4.472145
endloop
endfacet
facet normal 0.014374 0.548113 -0.836281
outer loop
vertex 0.690984 2.126607 -4.472145
vertex -0.812278 2.499977 -4.253270
vertex 0.263946 3.440930 -3.618055
endloop
endfacet
facet normal -0.112065 0.640855 -0.759438
outer loop
vertex -0.812278 2.499977 -4.253270
vertex -1.164108 3.582817 -3.287595
vertex 0.263946 3.440930 -3.618055
endloop
endfacet
facet normal -0.071125 0.767619 -0.636947
outer loop
vertex 0.263946 3.440930 -3.618055
vertex -1.164108 3.582817 -3.287595
vertex -0.148196 4.320920 -2.511510
endloop
endfacet
facet normal -0.168484 0.814944 -0.554509
outer loop
vertex -1.164108 3.582817 -3.287595
vertex -1.381940 4.253247 -2.236100
vertex -0.148196 4.320920 -2.511510
endloop
endfacet
facet normal -0.342697 0.758339 -0.554510
outer loop
vertex -1.164108 3.582817 -3.287595
vertex -2.419858 3.582824 -2.511510
vertex -1.381940 4.253247 -2.236100
endloop
endfacet
facet normal -0.286016 0.584335 -0.759438
outer loop
vertex -0.812278 2.499977 -4.253270
vertex -2.236052 2.628637 -3.618060
vertex -1.164108 3.582817 -3.287595
endloop
endfacet
facet normal -0.207860 0.343787 -0.915754
outer loop
vertex -0.388034 1.194264 -4.839750
vertex -1.809006 1.314314 -4.472145
vertex -0.812278 2.499977 -4.253270
endloop
endfacet
facet normal -0.393646 0.662827 -0.636948
outer loop
vertex -1.164108 3.582817 -3.287595
vertex -2.236052 2.628637 -3.618060
vertex -2.419858 3.582824 -2.511510
endloop
endfacet
facet normal -0.551344 0.584336 -0.595459
outer loop
vertex -2.236052 2.628637 -3.618060
vertex -3.440948 2.499984 -2.628680
vertex -2.419858 3.582824 -2.511510
endloop
endfacet
facet normal -0.333796 0.434985 -0.836283
outer loop
vertex -0.812278 2.499977 -4.253270
vertex -1.809006 1.314314 -4.472145
vertex -2.236052 2.628637 -3.618060
endloop
endfacet
facet normal -0.491123 0.356817 -0.794657
outer loop
vertex -1.809006 1.314314 -4.472145
vertex -3.190974 1.314314 -3.618045
vertex -2.236052 2.628637 -3.618060
endloop
endfacet
facet normal -0.598708 0.434984 -0.672561
outer loop
vertex -2.236052 2.628637 -3.618060
vertex -3.190974 1.314314 -3.618045
vertex -3.440948 2.499984 -2.628680
endloop
endfacet
facet normal -0.726112 0.343787 -0.595459
outer loop
vertex -3.190974 1.314314 -3.618045
vertex -4.155254 1.194267 -2.511495
vertex -3.440948 2.499984 -2.628680
endloop
endfacet
facet normal -0.233377 0.169558 -0.957489
outer loop
vertex -0.388034 1.194264 -4.839750
vertex -1.255734 0.000000 -4.839745
vertex -1.809006 1.314314 -4.472145
endloop
endfacet
facet normal -0.391194 0.091450 -0.915753
outer loop
vertex -1.255734 0.000000 -4.839745
vertex -2.628648 0.000000 -4.253260
vertex -1.809006 1.314314 -4.472145
endloop
endfacet
facet normal -0.516847 0.183046 -0.836279
outer loop
vertex -1.809006 1.314314 -4.472145
vertex -2.628648 0.000000 -4.253260
vertex -3.190974 1.314314 -3.618045
endloop
endfacet
facet normal -0.644124 0.091452 -0.759434
outer loop
vertex -2.628648 0.000000 -4.253260
vertex -3.767208 0.000000 -3.287575
vertex -3.190974 1.314314 -3.618045
endloop
endfacet
facet normal -0.752030 0.169559 -0.636946
outer loop
vertex -3.190974 1.314314 -3.618045
vertex -3.767208 0.000000 -3.287575
vertex -4.155254 1.194267 -2.511495
endloop
endfacet
facet normal -0.827125 0.091587 -0.554506
outer loop
vertex -3.767208 0.000000 -3.287575
vertex -4.472132 0.000000 -2.236080
vertex -4.155254 1.194267 -2.511495
endloop
endfacet
facet normal -0.827125 -0.091587 -0.554506
outer loop
vertex -3.767208 0.000000 -3.287575
vertex -4.155254 -1.194266 -2.511495
vertex -4.472132 0.000000 -2.236080
endloop
endfacet
facet normal -0.644124 -0.091452 -0.759434
outer loop
vertex -2.628648 0.000000 -4.253260
vertex -3.190972 -1.314320 -3.618045
vertex -3.767208 0.000000 -3.287575
endloop
endfacet
facet normal -0.391194 -0.091453 -0.915753
outer loop
vertex -1.255734 0.000000 -4.839745
vertex -1.809006 -1.314323 -4.472140
vertex -2.628648 0.000000 -4.253260
endloop
endfacet
facet normal -0.752030 -0.169559 -0.636946
outer loop
vertex -3.767208 0.000000 -3.287575
vertex -3.190972 -1.314320 -3.618045
vertex -4.155254 -1.194266 -2.511495
endloop
endfacet
facet normal -0.726113 -0.343786 -0.595459
outer loop
vertex -3.190972 -1.314320 -3.618045
vertex -3.440948 -2.499983 -2.628680
vertex -4.155254 -1.194266 -2.511495
endloop
endfacet
facet normal -0.516846 -0.183047 -0.836280
outer loop
vertex -2.628648 0.000000 -4.253260
vertex -1.809006 -1.314323 -4.472140
vertex -3.190972 -1.314320 -3.618045
endloop
endfacet
facet normal -0.491122 -0.356821 -0.794656
outer loop
vertex -1.809006 -1.314323 -4.472140
vertex -2.236052 -2.628643 -3.618050
vertex -3.190972 -1.314320 -3.618045
endloop
endfacet
facet normal -0.598705 -0.434986 -0.672562
outer loop
vertex -3.190972 -1.314320 -3.618045
vertex -2.236052 -2.628643 -3.618050
vertex -3.440948 -2.499983 -2.628680
endloop
endfacet
facet normal -0.551343 -0.584335 -0.595461
outer loop
vertex -2.236052 -2.628643 -3.618050
vertex -2.419858 -3.582823 -2.511510
vertex -3.440948 -2.499983 -2.628680
endloop
endfacet
facet normal -0.233378 -0.169559 -0.957488
outer loop
vertex -1.255734 0.000000 -4.839745
vertex -0.388034 -1.194263 -4.839750
vertex -1.809006 -1.314323 -4.472140
endloop
endfacet
facet normal -0.207860 -0.343787 -0.915754
outer loop
vertex -0.388034 -1.194263 -4.839750
vertex -0.812278 -2.499976 -4.253270
vertex -1.809006 -1.314323 -4.472140
endloop
endfacet
facet normal -0.333799 -0.434987 -0.836280
outer loop
vertex -1.809006 -1.314323 -4.472140
vertex -0.812278 -2.499976 -4.253270
vertex -2.236052 -2.628643 -3.618050
endloop
endfacet
facet normal -0.286019 -0.584334 -0.759438
outer loop
vertex -0.812278 -2.499976 -4.253270
vertex -1.164108 -3.582816 -3.287595
vertex -2.236052 -2.628643 -3.618050
endloop
endfacet
facet normal -0.393647 -0.662826 -0.636949
outer loop
vertex -2.236052 -2.628643 -3.618050
vertex -1.164108 -3.582816 -3.287595
vertex -2.419858 -3.582823 -2.511510
endloop
endfacet
facet normal -0.342697 -0.758339 -0.554509
outer loop
vertex -1.164108 -3.582816 -3.287595
vertex -1.381940 -4.253246 -2.236100
vertex -2.419858 -3.582823 -2.511510
endloop
endfacet
facet normal 0.722992 0.412072 -0.554509
outer loop
vertex 4.063646 1.476190 -2.511505
vertex 3.047734 2.214283 -3.287595
vertex 3.618036 2.628627 -2.236100
endloop
endfacet
facet normal 0.789510 0.148667 -0.595460
outer loop
vertex 4.253240 0.000000 -2.628680
vertex 3.354084 0.812284 -3.618055
vertex 4.063646 1.476190 -2.511505
endloop
endfacet
facet normal 0.789510 -0.148667 -0.595459
outer loop
vertex 4.063646 -1.476190 -2.511505
vertex 3.354088 -0.812290 -3.618050
vertex 4.253240 0.000000 -2.628680
endloop
endfacet
facet normal 0.708071 0.304852 -0.636947
outer loop
vertex 4.063646 1.476190 -2.511505
vertex 3.354084 0.812284 -3.618055
vertex 3.047734 2.214283 -3.287595
endloop
endfacet
facet normal 0.574859 0.304616 -0.759439
outer loop
vertex 3.354084 0.812284 -3.618055
vertex 2.126614 1.545057 -4.253270
vertex 3.047734 2.214283 -3.287595
endloop
endfacet
facet normal 0.740042 -0.000000 -0.672560
outer loop
vertex 4.253240 0.000000 -2.628680
vertex 3.354088 -0.812290 -3.618050
vertex 3.354084 0.812284 -3.618055
endloop
endfacet
facet normal 0.607056 -0.000001 -0.794659
outer loop
vertex 3.354088 -0.812290 -3.618050
vertex 2.236054 -0.000003 -4.472140
vertex 3.354084 0.812284 -3.618055
endloop
endfacet
facet normal 0.525727 0.155704 -0.836282
outer loop
vertex 3.354084 0.812284 -3.618055
vertex 2.236054 -0.000003 -4.472140
vertex 2.126614 1.545057 -4.253270
endloop
endfacet
facet normal 0.370237 0.155948 -0.915754
outer loop
vertex 2.236054 -0.000003 -4.472140
vertex 1.015904 0.738090 -4.839750
vertex 2.126614 1.545057 -4.253270
endloop
endfacet
facet normal 0.708071 -0.304853 -0.636946
outer loop
vertex 4.063646 -1.476190 -2.511505
vertex 3.047734 -2.214283 -3.287595
vertex 3.354088 -0.812290 -3.618050
endloop
endfacet
facet normal 0.574858 -0.304616 -0.759438
outer loop
vertex 3.047734 -2.214283 -3.287595
vertex 2.126614 -1.545056 -4.253270
vertex 3.354088 -0.812290 -3.618050
endloop
endfacet
facet normal 0.525729 -0.155705 -0.836280
outer loop
vertex 3.354088 -0.812290 -3.618050
vertex 2.126614 -1.545056 -4.253270
vertex 2.236054 -0.000003 -4.472140
endloop
endfacet
facet normal 0.370236 -0.155949 -0.915754
outer loop
vertex 2.126614 -1.545056 -4.253270
vertex 1.015904 -0.738090 -4.839750
vertex 2.236054 -0.000003 -4.472140
endloop
endfacet
facet normal 0.288474 0.000000 -0.957488
outer loop
vertex 2.236054 -0.000003 -4.472140
vertex 1.015904 -0.738090 -4.839750
vertex 1.015904 0.738090 -4.839750
endloop
endfacet
facet normal 0.155815 0.000000 -0.987786
outer loop
vertex 1.015904 -0.738090 -4.839750
vertex -0.000000 0.000000 -5.000000
vertex 1.015904 0.738090 -4.839750
endloop
endfacet
facet normal -0.168485 -0.814943 -0.554509
outer loop
vertex -1.164108 -3.582816 -3.287595
vertex -0.148196 -4.320920 -2.511510
vertex -1.381940 -4.253246 -2.236100
endloop
endfacet
facet normal -0.112066 -0.640854 -0.759439
outer loop
vertex -0.812278 -2.499976 -4.253270
vertex 0.263952 -3.440926 -3.618060
vertex -1.164108 -3.582816 -3.287595
endloop
endfacet
facet normal -0.033908 -0.400307 -0.915754
outer loop
vertex -0.388034 -1.194263 -4.839750
vertex 0.690994 -2.126603 -4.472145
vertex -0.812278 -2.499976 -4.253270
endloop
endfacet
facet normal -0.071126 -0.767619 -0.636947
outer loop
vertex -1.164108 -3.582816 -3.287595
vertex 0.263952 -3.440926 -3.618060
vertex -0.148196 -4.320920 -2.511510
endloop
endfacet
facet normal 0.102583 -0.796808 -0.595460
outer loop
vertex 0.263952 -3.440926 -3.618060
vertex 1.314344 -4.045060 -2.628690
vertex -0.148196 -4.320920 -2.511510
endloop
endfacet
facet normal 0.014374 -0.548111 -0.836282
outer loop
vertex -0.812278 -2.499976 -4.253270
vertex 0.690994 -2.126603 -4.472145
vertex 0.263952 -3.440926 -3.618060
endloop
endfacet
facet normal 0.187595 -0.577344 -0.794658
outer loop
vertex 0.690994 -2.126603 -4.472145
vertex 1.809024 -2.938896 -3.618055
vertex 0.263952 -3.440926 -3.618060
endloop
endfacet
facet normal 0.228689 -0.703818 -0.672563
outer loop
vertex 0.263952 -3.440926 -3.618060
vertex 1.809024 -2.938896 -3.618055
vertex 1.314344 -4.045060 -2.628690
endloop
endfacet
facet normal 0.385368 -0.704925 -0.595460
outer loop
vertex 1.809024 -2.938896 -3.618055
vertex 2.659704 -3.408563 -2.511510
vertex 1.314344 -4.045060 -2.628690
endloop
endfacet
facet normal 0.089143 -0.274352 -0.957489
outer loop
vertex -0.388034 -1.194263 -4.839750
vertex 1.015904 -0.738090 -4.839750
vertex 0.690994 -2.126603 -4.472145
endloop
endfacet
facet normal 0.262730 -0.303921 -0.915754
outer loop
vertex 1.015904 -0.738090 -4.839750
vertex 2.126614 -1.545056 -4.253270
vertex 0.690994 -2.126603 -4.472145
endloop
endfacet
facet normal 0.310549 -0.451878 -0.836281
outer loop
vertex 0.690994 -2.126603 -4.472145
vertex 2.126614 -1.545056 -4.253270
vertex 1.809024 -2.938896 -3.618055
endloop
endfacet
facet normal 0.467353 -0.452587 -0.759438
outer loop
vertex 2.126614 -1.545056 -4.253270
vertex 3.047734 -2.214283 -3.287595
vertex 1.809024 -2.938896 -3.618055
endloop
endfacet
facet normal 0.508743 -0.579205 -0.636947
outer loop
vertex 1.809024 -2.938896 -3.618055
vertex 3.047734 -2.214283 -3.287595
vertex 2.659704 -3.408563 -2.511510
endloop
endfacet
facet normal 0.615326 -0.560263 -0.554508
outer loop
vertex 3.047734 -2.214283 -3.287595
vertex 3.618036 -2.628626 -2.236100
vertex 2.659704 -3.408563 -2.511510
endloop
endfacet
endsolid Exported from Blender-3.3.1
